<?xml version="1.0" encoding="UTF-8" standalone="no"?>
<svg
   xmlns:dc="http://purl.org/dc/elements/1.1/"
   xmlns:cc="http://creativecommons.org/ns#"
   xmlns:rdf="http://www.w3.org/1999/02/22-rdf-syntax-ns#"
   xmlns:svg="http://www.w3.org/2000/svg"
   xmlns="http://www.w3.org/2000/svg"
   xmlns:sodipodi="http://sodipodi.sourceforge.net/DTD/sodipodi-0.dtd"
   xmlns:inkscape="http://www.inkscape.org/namespaces/inkscape"
   width="288.597pt"
   version="1.1"
   height="280.447pt"
   viewBox="0 0 288.597 280.447"
   id="svg3332"
   inkscape:version="0.48.4 r9939"
   sodipodi:docname="Logo Majlis Bandaraya Shah Alam (MBSA)-page001.svg">
  <metadata
     id="metadata3677">
    <rdf:RDF>
      <cc:Work
         rdf:about="">
        <dc:format>image/svg+xml</dc:format>
        <dc:type
           rdf:resource="http://purl.org/dc/dcmitype/StillImage" />
        <dc:title></dc:title>
      </cc:Work>
    </rdf:RDF>
  </metadata>
  <sodipodi:namedview
     pagecolor="#ffffff"
     bordercolor="#666666"
     borderopacity="1"
     objecttolerance="10"
     gridtolerance="10"
     guidetolerance="10"
     inkscape:pageopacity="0"
     inkscape:pageshadow="2"
     inkscape:window-width="1024"
     inkscape:window-height="538"
     id="namedview3675"
     showgrid="false"
     inkscape:zoom="1.0012587"
     inkscape:cx="180.37311"
     inkscape:cy="175.27937"
     inkscape:window-x="-8"
     inkscape:window-y="-8"
     inkscape:window-maximized="1"
     inkscape:current-layer="svg3332" />
  <defs
     id="defs3336">
    <clipPath
       id="Clip0">
      <path
         d="M0 0 L298.855 0 L298.855 280.678 L0 280.678 L0 0 Z"
         transform="translate(-10.4107, -0.2309)"
         id="path3339" />
    </clipPath>
    <clipPath
       id="Clip1">
      <path
         d="M0 0 L298.855 0 L298.855 279.195 L0 279.195 L0 0 Z"
         transform="translate(-10.4107, 1.25181)"
         id="path3342" />
    </clipPath>
    <clipPath
       id="Clip2">
      <path
         d="M0 0 L42.8574 0 L42.8574 40.7968 L0 40.7968 L0 0 Z"
         transform="translate(127.801, -0.2309)"
         id="path3345" />
    </clipPath>
  </defs>
  <g
     id="1">
    <g
       id="Group3"
       clip-path="url(#Clip0)">
      <g
         id="Group1"
         clip-path="url(#Clip1)">
        <path
           style="fill:#ffffff; fill-rule:nonzero;stroke:none;"
           d="M181.414 90.7188 C181.414 140.807 140.798 181.422 90.7026 181.422 C40.6148 181.422 0 140.807 0 90.7119 C0 40.6152 40.6148 0 90.7026 0 C140.798 0 181.414 40.6221 181.414 90.7188 Z"
           transform="translate(58.5405, 48.5967)"
           id="path3350" />
        <path
           style="fill:#004193; fill-rule:nonzero;stroke:none;"
           d="M110.6 0 C49.5185 0 0 49.5152 0 110.603 C0 171.692 49.5185 221.204 110.6 221.204 C171.684 221.204 221.209 171.699 221.209 110.61 C221.209 49.522 171.684 0 110.6 0 Z M110.6 196.486 C63.1728 196.486 24.7246 158.031 24.7246 110.603 C24.7246 63.166 63.1728 24.7212 110.6 24.7212 C158.036 24.7212 196.491 63.1729 196.491 110.61 C196.491 158.031 158.036 196.486 110.6 196.486 "
           transform="translate(38.6426, 28.7754)"
           id="path3352" />
        <path
           style="fill:#ffffff; fill-rule:nonzero;stroke:none;"
           d="M16.8906 75.938 L15.3975 77.4345 L12.6123 78.726 L8.126 78.9345 L2.9937 71.4511 L0.4238 60.332 L0 55.8281 L5.1255 44.2749 L14.3277 26.7422 L17.96 15.8281 L20.752 14.1157 L24.3843 0 L33.3643 1.705 L44.4907 3.2016 L54.1236 2.9931 L60.1099 2.9931 L61.603 3.6357 L61.603 5.768 L55.1861 7.0595 L47.9146 8.56 L41.5039 8.56 L38.4971 8.7714 L32.7188 20.5263 L24.1621 27.374 L23.0996 32.2983 L20.9605 50.0605 L23.3081 67.1626 L30.3779 71.6665 L28.8711 74.0107 L27.586 74.8681 L23.7383 73.3022 L18.606 68.0273 L11.543 59.8945 L10.2578 52.1923 L10.2578 50.9077 L5.7715 55.1894 L4.7022 58.832 L5.3477 64.6035 L8.3413 72.9409 L9.1953 73.7988 L11.543 74.4482 L14.9668 74.8681 L16.8906 75.938 Z"
           transform="translate(15.9736, 51.8819)"
           id="path3354" />
        <path
           style="fill:#ffec00; fill-rule:nonzero;stroke:none;"
           d="M66.249 52.623 C66.249 52.623 54.9009 51.3315 46.9903 52.8349 C46.9903 52.8349 35.2324 51.9804 32.6626 51.123 C32.6626 51.123 29.8706 60.7456 28.5928 61.8149 C28.5928 61.8149 30.0928 68.4511 24.7383 68.0239 C24.7383 68.0239 18.3208 89.1997 11.2647 98.1899 C11.2647 98.1899 4.8404 105.677 9.5493 115.087 C9.5493 115.087 11.4732 124.501 16.8277 124.29 C16.8277 124.29 20.0366 124.922 20.8906 122.147 L23.0991 122.932 L23.9605 125.359 C23.9605 125.359 24.0991 126.776 21.3906 125.925 L20.2515 125.787 L19.8213 127.071 L18.6753 128.068 L16.543 126.776 L15.689 127.217 L14.2583 128.068 L12.1192 128.207 L9.8272 127.071 L9.2715 124.651 L8.5562 123.366 L5.563 118.8 L2.7017 114.806 L0.5625 109.101 L0 101.538 L2.8472 93.9814 L3.5557 81.289 L6.271 75.726 L10.1255 67.166 L15.1123 61.749 L18.1128 57.0434 L20.2515 52.0537 L19.5362 48.9111 L19.1128 39.9306 L17.4043 34.7949 L18.6753 30.6626 L19.9668 28.0859 L20.6753 24.957 L22.3906 19.3872 L23.523 13.8242 L25.3843 10.5532 L28.5166 8.4072 L30.2251 4.2749 L34.9404 3.705 L37.3643 2.9829 L41.5039 0.2812 L47.4903 0 L48.1988 1.6982 L49.2061 3.8476 L48.0532 6.9765 L46.0596 6.9765 L43.9204 7.2714 L42.2124 9.1225 L41.5039 13.5429 C41.5039 13.5429 41.2818 15.6752 43.4624 15.8315 C43.4624 15.8315 43.6431 16.54 47.4903 16.1162 C47.4903 16.1162 50.1992 16.6787 48.7754 18.6787 L47.4903 20.2485 L43.0664 20.6718 L43.3511 22.811 C43.3511 22.811 44.3511 26.2353 41.2193 26.9506 L40.4966 36.788 L45.2056 38.7851 C45.2056 38.7851 51.4907 41.2158 52.1992 42.6464 L57.4707 43.9209 L61.3252 44.9243 L73.3057 43.6328 L78.5767 46.0703 L78.5767 47.4873 L78.292 48.9111 L76.2988 48.9111 L75.1665 51.1889 L73.0205 52.0537 L70.4512 51.6264 L69.7427 53.4843 L67.5967 53.7656 L66.249 52.623 Z"
           transform="translate(10.7651, 5.1031)"
           id="path3356" />
        <path
           style="fill:#004193; fill-rule:nonzero;stroke:none;"
           d="M14.5429 22.6777 L0 13.2685 L6.4101 11.5566 L7.2861 0 L20.5371 1.2852 L20.9677 8.5601 L28.6689 12.4145 L14.5429 22.6777 Z"
           transform="translate(135.555, 125.472)"
           id="path3358" />
        <path
           style="fill:#e20010; fill-rule:nonzero;stroke:none;"
           d="M53.8877 47.3658 L26.5371 62.1968 L0 45.9419 L0.8267 14.8453 L28.1768 0 L54.7002 16.2618 L53.8877 47.3658 Z"
           transform="translate(121.893, 62.2788)"
           id="path3360" />
        <path
           style="fill:#e20010; fill-rule:nonzero;stroke:none;"
           d="M26.6836 62.2295 L0 46.2231 L0.5206 15.1123 L27.7247 0 L54.4082 16.0117 L53.8868 47.1225 L26.6836 62.2295 Z"
           transform="translate(162.21, 85.1978)"
           id="path3362" />
        <path
           style="fill:#e20010; fill-rule:nonzero;stroke:none;"
           d="M0 46.1314 L0.6181 15.024 L27.8642 0 L54.4843 16.0933 L53.8671 47.2076 L26.621 62.2232 L0 46.1314 Z"
           transform="translate(162.543, 131.966)"
           id="path3364" />
        <path
           style="fill:#e20010; fill-rule:nonzero;stroke:none;"
           d="M0.646 15.001 L27.9053 0 L54.5195 16.1055 L53.8799 47.2051 L26.6201 62.2139 L0 46.1084 L0.646 15.001 Z"
           transform="translate(121.887, 155.338)"
           id="path3366" />
        <path
           style="fill:#e20010; fill-rule:nonzero;stroke:none;"
           d="M27.7461 0 L54.4219 16.024 L53.8872 47.1382 L26.6694 62.2163 L0 46.1939 L0.5488 15.0796 L27.7461 0 Z"
           transform="translate(81.4868, 131.945)"
           id="path3368" />
        <path
           style="fill:#e20010; fill-rule:nonzero;stroke:none;"
           d="M54.6509 16.2202 L53.8867 47.3238 L26.5508 62.2056 L0 45.9942 L0.7705 14.8902 L28.086 0 L54.6509 16.2202 Z"
           transform="translate(81.8691, 85.0205)"
           id="path3370" />
        <path
           style="fill:#ffec00; fill-rule:nonzero;stroke:#161413; stroke-width:1; stroke-linecap:butt; stroke-linejoin:miter; stroke-dasharray:none;"
           d="M275.554 15.876 C262.741 80.3135 205.895 128.88 137.694 128.88 C69.7915 128.88 13.1401 80.7363 0 16.7305 L2.7017 8.2022 L24.0718 0.2295 C30.0239 57.7071 78.6328 102.537 137.694 102.537 C196.832 102.537 245.489 57.5889 251.336 0 L273.193 6.8545 L275.554 15.876 Z"
           transform="translate(11.3413, 151.067)"
           id="path3372" />
        <path
           style="fill:#ffffff; fill-rule:nonzero;stroke:#161413; stroke-width:0.888974; stroke-linecap:butt; stroke-linejoin:miter; stroke-dasharray:none;"
           d="M33.1622 0 L0.0547 19.0435 L0 57.2383 L33.044 76.3882 L66.1446 57.3496 L66.2071 19.1548 L33.1622 0 Z M60.0332 53.8076 L33.0586 69.3247 L6.125 53.7207 L6.1739 22.5855 L33.1553 7.0772 L60.0752 22.6831 L60.0332 53.8076 "
           transform="translate(156.21, 78.5127)"
           id="path3374" />
        <path
           style="fill:#ffffff; fill-rule:nonzero;stroke:#161413; stroke-width:0.888974; stroke-linecap:butt; stroke-linejoin:miter; stroke-dasharray:none;"
           d="M33.0727 0 L0 19.0889 L0 57.2764 L33.0727 76.3755 L66.145 57.2764 L66.145 19.0889 L33.0727 0 Z M60.019 53.7515 L33.0727 69.3052 L6.1255 53.7412 L6.1255 22.6235 L33.0727 7.063 L60.019 22.6235 L60.019 53.7515 "
           transform="translate(116.317, 55.2676)"
           id="path3376" />
        <path
           style="fill:#ffffff; fill-rule:nonzero;stroke:#161413; stroke-width:0.888974; stroke-linecap:butt; stroke-linejoin:miter; stroke-dasharray:none;"
           d="M0.3125 18.8321 L0 57.0127 L32.9268 76.377 L66.1519 57.544 L66.4585 19.3633 L33.5308 0 L0.3125 18.8321 Z M60.3042 22.8462 L60.0542 53.9639 L32.9756 69.3077 L6.1602 53.5298 L6.4033 22.4053 L33.4756 7.0704 L60.3042 22.8462 "
           transform="translate(76.3198, 77.8911)"
           id="path3378" />
        <path
           style="fill:#ffffff; fill-rule:nonzero;stroke:#161413; stroke-width:0.888974; stroke-linecap:butt; stroke-linejoin:miter; stroke-dasharray:none;"
           d="M0 57.0796 L32.9404 76.3804 L66.145 57.4966 L66.3814 19.3121 L33.4336 0 L0.2358 18.8892 L0 57.0796 Z M33.3989 7.0699 L60.2417 22.7994 L60.0474 53.9273 L32.9961 69.3033 L6.1397 53.5796 L6.3408 22.4585 L33.3989 7.0699 "
           transform="translate(75.8823, 124.087)"
           id="path3380" />
        <path
           style="fill:#ffffff; fill-rule:nonzero;stroke:#161413; stroke-width:0.888974; stroke-linecap:butt; stroke-linejoin:miter; stroke-dasharray:none;"
           d="M32.9761 76.3682 L66.145 57.4297 L66.3325 19.252 L33.3511 0 L0.188 18.9258 L0 57.1172 L32.9761 76.3682 Z M6.2857 22.4952 L33.3159 7.0703 L60.1939 22.7588 L60.0474 53.8662 L33.0239 69.3125 L6.1328 53.6162 L6.2857 22.4952 "
           transform="translate(115.719, 147.545)"
           id="path3382" />
        <path
           style="fill:#ffffff; fill-rule:nonzero;stroke:#161413; stroke-width:0.888974; stroke-linecap:butt; stroke-linejoin:miter; stroke-dasharray:none;"
           d="M66.1387 57.3965 L66.2637 19.2051 L33.2461 0 L0.1182 18.9893 L0 57.1738 L33.0098 76.3769 L66.1387 57.3965 Z M6.1182 53.667 L6.2227 22.5527 L33.2256 7.0664 L60.124 22.7187 L60.0264 53.833 L33.0244 69.3213 L6.1182 53.667 "
           transform="translate(155.932, 124.722)"
           id="path3384" />
        <path
           style="fill:#ffec00; fill-rule:nonzero;stroke:#161413; stroke-width:1; stroke-linecap:round; stroke-linejoin:round; stroke-dasharray:none;"
           d="M49.9214 0 C49.9214 0 47.0601 2.5694 21.9604 9.7056 C21.9604 9.7056 0 14.2583 1.146 25.1119 L0.354 46.5718 C0.354 46.5718 3.417 37.9458 19.1059 34.231 C19.1059 34.231 51.9145 25.9585 53.3452 22.5347 L49.9214 0 Z"
           transform="translate(10.9038, 121.045)"
           id="path3386" />
        <path
           style="fill:#ed73a8; fill-rule:nonzero;stroke:#161413; stroke-width:0.888974; stroke-linecap:butt; stroke-linejoin:miter; stroke-dasharray:none;"
           d="M0 16.9741 C0 16.9741 6.4033 15.5395 9.834 5.2681 C9.834 5.2681 11.835 0 16.6748 2.7085 C16.6748 2.7085 18.21 6.0664 23.7734 6.2715 C23.7734 6.2715 31.3574 9.1641 27.7314 17.4009 C27.7314 17.4009 23.6689 20.9292 23.6689 24.6748 C23.6689 24.6748 22.3838 30.0293 16.8213 26.7158 C16.8213 26.7158 9.4453 20.9292 1.7363 22.959 "
           transform="translate(153.82, 117.489)"
           id="path3388" />
        <path
           style="fill:#ed73a8; fill-rule:nonzero;stroke:#161413; stroke-width:0.888974; stroke-linecap:butt; stroke-linejoin:miter; stroke-dasharray:none;"
           d="M31.9472 17.106 C31.9472 17.106 24.9536 15.5395 21.5366 5.2681 C21.5366 5.2681 19.5366 0 14.6816 2.7017 C14.6816 2.7017 13.1538 6.0596 7.5839 6.2715 C7.5839 6.2715 0 9.1641 3.6459 17.394 C3.6459 17.394 7.7021 20.9189 7.7021 24.667 C7.7021 24.667 8.9868 30.0225 14.5498 26.7021 C14.5498 26.7021 21.9189 20.9189 29.6279 22.9521 "
           transform="translate(113.31, 117.489)"
           id="path3390" />
        <path
           style="fill:#ed73a8; fill-rule:nonzero;stroke:#161413; stroke-width:0.888974; stroke-linecap:butt; stroke-linejoin:miter; stroke-dasharray:none;"
           d="M19.106 29.5235 C19.106 29.5235 19.106 21.5332 12.8345 21.8145 C12.8345 21.8145 0 7.9937 22.0991 0 C22.0991 0 43.6431 5.4244 31.9409 21.5401 C31.9409 21.5401 26.2388 24.5372 25.5308 29.5235 "
           transform="translate(127.144, 104.22)"
           id="path3392" />
        <path
           style="fill:#ed73a8; fill-rule:nonzero;stroke:#161413; stroke-width:0.888974; stroke-linecap:butt; stroke-linejoin:miter; stroke-dasharray:none;"
           d="M5.9034 0 C5.9034 0 9.9864 3.8203 15.543 2.3964 C15.543 2.3964 34.2256 7.1054 20.6758 25.6484 C20.6758 25.6484 0.3125 33.8574 0 13.9531 C0 13.9531 3.1944 8.2783 0.7705 3.8613 "
           transform="translate(149.39, 141.899)"
           id="path3394" />
        <path
           style="fill:#ed73a8; fill-rule:nonzero;stroke:#161413; stroke-width:0.888974; stroke-linecap:butt; stroke-linejoin:miter; stroke-dasharray:none;"
           d="M34.0102 3.792 C34.0102 3.792 31.5513 8.8057 34.5376 13.7021 C34.5376 13.7021 36.0239 32.9404 14.3486 25.3838 C14.3486 25.3838 0 8.3057 18.9531 2.2012 C18.9531 2.2012 25.3081 3.6113 28.8354 0 "
           transform="translate(114.65, 142.164)"
           id="path3396" />
        <path
           style="fill:#e20010; fill-rule:nonzero;stroke:#161413; stroke-width:0.888974; stroke-linecap:butt; stroke-linejoin:miter; stroke-dasharray:none;"
           d="M10.5362 0.0937 L12.9112 7.7138 L6.4043 12.3398 L0 7.5615 L2.5567 0 L10.5362 0.0937 Z"
           transform="translate(142.985, 133.761)"
           id="path3398" />
        <path
           style="fill:#ed73a8; fill-rule:nonzero;stroke:#161413; stroke-width:0.888974; stroke-linecap:butt; stroke-linejoin:miter; stroke-dasharray:none;"
           d="M5.6875 2.8404 C5.6875 4.4136 4.4238 5.6846 2.8476 5.6846 C1.2851 5.6846 0 4.4136 0 2.8404 C0 1.271 1.2851 0 2.8476 0 C4.4238 0 5.6875 1.271 5.6875 2.8404 Z"
           transform="translate(146.542, 130.903)"
           id="path3400" />
        <path
           style="fill:#ed73a8; fill-rule:nonzero;stroke:#161413; stroke-width:0.888974; stroke-linecap:butt; stroke-linejoin:miter; stroke-dasharray:none;"
           d="M6.9941 3.3067 C6.8965 1.4727 5.3623 0 3.4941 0 C1.6533 0 0.1465 1.3965 0 3.1953 L3.4941 5.8135 L6.9941 3.3067 Z"
           transform="translate(145.895, 140.288)"
           id="path3402" />
        <path
           style="fill:#161413; fill-rule:nonzero;stroke:none;"
           d="M1.9448 0 L5.0908 9.8409 L3.1465 10.4659 L0 0.625 L1.9448 0 Z"
           transform="translate(18.5293, 142.045)"
           id="path3404" />
        <path
           style="fill:#161413; fill-rule:nonzero;stroke:none;"
           d="M1.875 1.3271 L6.167 6.5078 L6.1812 6.4805 C5.917 6.0498 5.7227 5.5498 5.563 5.0361 L4.1739 0.6045 L6.1187 0 L9.209 9.8555 L7.3618 10.4248 L3.0972 5.2305 L3.0767 5.2715 L3.4795 6.2373 L3.6114 6.6396 L5.0283 11.1611 L3.0835 11.7725 L0 1.917 L1.875 1.3271 Z"
           transform="translate(22.2939, 139.551)"
           id="path3406" />
        <path
           style="fill:#161413; fill-rule:nonzero;stroke:none;"
           d="M4.4243 9.8189 L2.4868 3.4566 C4.0839 2.9566 5.0908 4.8394 5.4731 6.0894 C5.8481 7.3189 6.0214 9.4224 4.4243 9.8189 Z M4.7504 11.6382 C7.8271 10.6939 8.2924 8.3257 7.4384 5.5132 C5.7509 0 1.8129 1.7398 1.4726 1.8369 L0 2.2974 L3.0073 12.1665 L4.7504 11.6382 "
           transform="translate(30.1763, 136.713)"
           id="path3408" />
        <path
           style="fill:#161413; fill-rule:nonzero;stroke:none;"
           d="M3.6597 6.7973 L2.2915 7.2006 L1.9375 4.4428 L1.7012 2.8857 L1.729 2.8681 L2.3819 4.311 L3.6597 6.7973 Z M0 0.6113 L0.6177 11.1938 L2.5694 10.6245 L2.4238 8.8461 L4.417 8.2631 L5.271 9.8256 L7.3687 9.2075 L2.0625 0 L0 0.6113 "
           transform="translate(39.2192, 135.657)"
           id="path3410" />
        <path
           style="fill:#161413; fill-rule:nonzero;stroke:none;"
           d="M1.959 1.1079 L3.042 4.9971 L5.0356 4.4414 L3.959 0.5522 L5.9175 0 L8.6885 9.9502 L6.7163 10.4922 L5.5493 6.2905 L3.5561 6.8389 L4.7231 11.0547 L2.7641 11.5898 L0 1.6528 L1.959 1.1079 Z"
           transform="translate(44.8999, 132.956)"
           id="path3412" />
        <path
           style="fill:#161413; fill-rule:nonzero;stroke:none;"
           d="M21.8354 5.1387 L10.7788 10.626 L10.7993 10.6817 L22.9258 8.6739 L24.5371 13.9112 L5.438 22.043 L4.2016 18.0362 L18.1338 12.7227 L18.1196 12.667 L13.0566 13.5352 L3.1948 14.7374 L2.2641 11.7227 L11.126 6.9102 L15.3276 4.9034 L15.6958 4.792 L15.6748 4.7364 L1.2915 8.5284 L0 4.3477 L20.2724 0 L21.8354 5.1387 Z"
           transform="translate(14.6543, 166.708)"
           id="path3414" />
        <path
           style="fill:#161413; fill-rule:nonzero;stroke:none;"
           d="M9.5913 9.0977 L8.3828 6.4932 L13.7373 4.958 L16.7514 4.0273 L16.7793 4.0762 L14.1333 5.8193 L9.5913 9.0977 Z M20.7309 0 L0 4.3887 L1.7085 8.0625 L5.1811 7.2568 L6.9174 11.0078 L4.0976 13.168 L5.9311 17.1191 L22.5507 3.8955 L20.7309 0 "
           transform="translate(21.2173, 186.835)"
           id="path3416" />
        <path
           style="fill:#161413; fill-rule:nonzero;stroke:none;"
           d="M9.563 10.6123 C8.1118 11.4873 3.625 14.3555 1.0137 9.9453 C0.5068 9.0703 0.0552 7.9736 0 6.9805 L3.5142 4.9101 C3.1943 5.668 3.1807 6.5986 3.6113 7.3271 C4.5835 8.9805 6.313 7.7998 7.4937 7.1123 L19.5088 0 L21.585 3.5078 L9.563 10.6123 Z"
           transform="translate(28.3779, 198.377)"
           id="path3418" />
        <path
           style="fill:#161413; fill-rule:nonzero;stroke:none;"
           d="M19.231 3.3262 L5.48 13.0215 L7.9453 16.5078 L4.813 18.7236 L0 11.8896 L16.8838 0 L19.231 3.3262 Z"
           transform="translate(34.2739, 203.739)"
           id="path3420" />
        <path
           style="fill:#161413; fill-rule:nonzero;stroke:none;"
           d="M18.5918 3.167 L2.5625 16.1826 L0 13.0156 L16.022 0 L18.5918 3.167 Z"
           transform="translate(40.8027, 211.545)"
           id="path3422" />
        <path
           style="fill:#161413; fill-rule:nonzero;stroke:none;"
           d="M16.7656 8.5986 C16.7241 7.5078 16.4668 6.3554 15.6889 5.5429 C14.8208 4.6328 13.7304 4.584 12.8139 5.4453 C10.3481 7.7861 14.4804 12.4248 10.4248 16.2724 C7.7578 18.7871 4.2993 19.1621 1.6738 16.3838 C0.875 15.5361 0.1528 14.2656 0 13.1201 L2.8335 10.4385 C3.0141 11.5918 3.3408 12.5713 4.167 13.4463 C5.063 14.3974 6.4243 14.5508 7.4106 13.6054 C8.5635 12.5224 8.1328 11.1885 7.9453 9.7929 C7.4868 6.9873 7.5913 4.876 9.772 2.8135 C12.147 0.5703 15.4946 0 17.9048 2.542 C18.8076 3.4941 19.3559 4.5976 19.6479 5.8554 L16.7656 8.5986 Z"
           transform="translate(46.5669, 217.323)"
           id="path3424" />
        <path
           style="fill:#161413; fill-rule:nonzero;stroke:none;"
           d="M9.1396 15.4531 C8.0771 16.8281 6.5771 17.1963 5.3271 16.1201 L8.7368 11.7031 C10.0498 12.6475 10.1191 14.1826 9.1396 15.4531 Z M3.1533 18.7588 C6.0976 21.0371 9.5356 21.5235 12.0288 18.2871 C13.1196 16.8701 13.7861 14.627 12.9458 12.9463 C14.7861 13.0645 16.1889 12.3623 17.3144 10.9112 C18.3769 9.5498 18.9048 7.6543 18.4951 5.9453 C18.1128 4.2998 17.0571 3.4102 15.7934 2.4453 L12.6333 0 L0 16.3281 L3.1533 18.7588 Z M14.2168 8.6192 C13.2514 9.8623 11.897 10.1338 10.6885 9.1885 L13.7724 5.1953 C15.0571 6.0987 15.1264 7.4248 14.2168 8.6192 "
           transform="translate(60.8252, 228.942)"
           id="path3426" />
        <path
           style="fill:#161413; fill-rule:nonzero;stroke:none;"
           d="M10.605 13.7442 L8.1465 12.2442 L11.7578 8.0069 L13.7583 5.5625 L13.7998 5.5977 L12.5777 8.5 L10.605 13.7442 Z M14.8345 0 L0 15.1329 L3.4653 17.251 L5.9033 14.6612 L9.4312 16.8135 L8.2715 20.1749 L11.9942 22.4463 L18.5088 2.2432 L14.8345 0 "
           transform="translate(71.4653, 238.27)"
           id="path3428" />
        <path
           style="fill:#161413; fill-rule:nonzero;stroke:none;"
           d="M12.0913 1.6035 L11.5845 15.0498 L11.6538 15.0293 C11.8345 14.043 12.2095 13.0215 12.647 12.0566 L16.481 3.5967 L20.2036 5.292 L11.6748 24.085 L8.1607 22.4883 L8.7022 9.0703 L8.6397 9.0908 L7.9522 11.0635 L7.626 11.8545 L3.7158 20.4805 L0 18.793 L8.5288 0 L12.0913 1.6035 Z"
           transform="translate(86.3901, 243.43)"
           id="path3430" />
        <path
           style="fill:#161413; fill-rule:nonzero;stroke:none;"
           d="M5.0073 17.4326 L8.9732 4.7236 C12.1958 5.7305 11.7373 9.9463 10.9458 12.46 C10.1748 14.919 8.0845 18.5645 5.0073 17.4326 Z M3.4868 20.794 C9.626 22.7246 13.0708 19.3223 14.835 13.6963 C18.273 2.709 9.7998 1.1465 9.126 0.9238 L6.1743 0 L0 19.7109 L3.4868 20.794 "
           transform="translate(102.294, 249.388)"
           id="path3432" />
        <path
           style="fill:#161413; fill-rule:nonzero;stroke:none;"
           d="M9.4316 14.3555 L6.605 13.8135 L8.4873 8.5703 L9.4873 5.584 L9.5356 5.5977 L9.4316 8.751 L9.4316 14.3555 Z M8.5288 0 L0 19.3975 L3.9868 20.1543 L5.355 16.8701 L9.4316 17.6406 L9.5356 21.1895 L13.814 21.9951 L12.7651 0.792 L8.5288 0 "
           transform="translate(116.525, 254.021)"
           id="path3434" />
        <path
           style="fill:#161413; fill-rule:nonzero;stroke:none;"
           d="M5.2715 3.6396 L5.813 3.6738 C7.8687 3.7158 8.5015 4.959 8.397 6.4385 C8.2788 8.1396 7.4526 9.3271 5.5908 9.2021 L4.8823 9.1328 L5.2715 3.6396 Z M4.0767 20.8769 L4.7295 11.376 L4.792 11.376 L7.7026 21.1269 L11.9946 21.4258 L9.0698 11.8066 C11.1675 10.8271 12.2026 8.9521 12.3696 6.6885 C12.7515 1.0557 8.1265 0.4658 5.5352 0.2783 L1.4307 0 L0 20.5996 L4.0767 20.8769 "
           transform="translate(133.54, 255.764)"
           id="path3436" />
        <path
           style="fill:#161413; fill-rule:nonzero;stroke:none;"
           d="M8.0147 13.959 L5.1465 14.0918 L5.7715 8.5557 L6.0635 5.4102 L6.126 5.4102 L6.7295 8.501 L8.0147 13.959 Z M3.8545 0.1944 L0 21.0293 L4.0488 20.8555 L4.6328 17.3487 L8.7647 17.1612 L9.6817 20.6055 L14.0361 20.4043 L8.1611 0 L3.8545 0.1944 "
           transform="translate(148.299, 256.237)"
           id="path3438" />
        <path
           style="fill:#161413; fill-rule:nonzero;stroke:none;"
           d="M4.4385 1.376 L7.3828 6.6123 L7.8271 7.5772 L7.8896 7.5635 L8.126 5.9805 L9.1885 0.667 L13.7099 0 L10.5224 11.3555 L11.9668 21.1348 L7.9248 21.7315 L6.4941 11.9532 L0 2.0284 L4.4385 1.376 Z"
           transform="translate(159.487, 254.167)"
           id="path3440" />
        <path
           style="fill:#161413; fill-rule:nonzero;stroke:none;"
           d="M6.8819 13.6963 L4.0967 14.4043 L3.5899 8.8554 L3.2364 5.7226 L3.292 5.709 L4.5205 8.6191 L6.8819 13.6963 Z M0 1.0625 L0.4717 22.2529 L4.417 21.2519 L4.2637 17.6963 L8.2647 16.6689 L9.876 19.8564 L14.0987 18.7734 L4.1807 0 L0 1.0625 "
           transform="translate(175.969, 252.298)"
           id="path3442" />
        <path
           style="fill:#161413; fill-rule:nonzero;stroke:none;"
           d="M9.1192 3.792 C8.084 3.4648 6.918 3.3193 5.8828 3.7705 C4.7227 4.2783 4.3057 5.292 4.8135 6.4521 C6.1748 9.5634 11.9385 7.2431 14.1817 12.3623 C15.6543 15.7168 14.835 19.1054 11.3203 20.6406 C10.2578 21.0986 8.8135 21.3486 7.6885 21.0918 L6.126 17.5293 C7.2783 17.7509 8.2998 17.7724 9.4043 17.2998 C10.6123 16.7656 11.2168 15.5429 10.6611 14.2861 C10.0361 12.834 8.6328 12.7929 7.2442 12.4941 C4.459 11.9873 2.5078 11.1601 1.3057 8.3965 C0 5.4101 0.5977 2.083 3.8057 0.666 C5.0147 0.1455 6.2442 0 7.5283 0.1591 L9.1192 3.792 Z"
           transform="translate(192.22, 245.611)"
           id="path3444" />
        <path
           style="fill:#161413; fill-rule:nonzero;stroke:none;"
           d="M3.5283 4.0908 L7.5567 11.0918 L11.1397 9.0215 L7.1113 2.0283 L10.6397 0 L20.9395 17.8907 L17.4111 19.919 L13.0567 12.3487 L9.4727 14.418 L13.8272 21.9883 L10.2852 24.0166 L0 6.1397 L3.5283 4.0908 Z"
           transform="translate(202.019, 237.867)"
           id="path3446" />
        <path
           style="fill:#161413; fill-rule:nonzero;stroke:none;"
           d="M11.167 11.6191 L8.8682 13.3349 L6.2715 8.4033 L4.7569 5.6465 L4.792 5.6113 L7.0352 7.834 L11.167 11.6191 Z M0 2.5625 L8.5147 21.9746 L11.7579 19.5508 L10.2715 16.3213 L13.5909 13.8418 L16.2793 16.1816 L19.7725 13.5703 L3.4512 0 L0 2.5625 "
           transform="translate(217.223, 232.019)"
           id="path3448" />
        <path
           style="fill:#161413; fill-rule:nonzero;stroke:none;"
           d="M2.9522 5.667 L8.5215 11.5146 L11.5225 8.6738 L5.9522 2.8125 L8.918 0 L23.1279 14.96 L20.1758 17.7793 L14.1543 11.4521 L11.168 14.2998 L17.1826 20.6269 L14.2305 23.4326 L0 8.4658 L2.9522 5.667 Z"
           transform="translate(225.216, 220.018)"
           id="path3450" />
        <path
           style="fill:#161413; fill-rule:nonzero;stroke:none;"
           d="M13.293 8.917 L11.585 11.2226 L7.6885 7.2432 L5.4453 5.0351 L5.4727 4.9863 L8.2578 6.4726 L13.293 8.917 Z M0 3.4443 L13.7237 19.6055 L16.1338 16.3486 L13.7862 13.6816 L16.2451 10.3691 L19.4951 11.8135 L22.0928 8.3203 L2.5625 0 L0 3.4443 "
           transform="translate(241.794, 207.406)"
           id="path3452" />
        <path
           style="fill:#161413; fill-rule:nonzero;stroke:none;"
           d="M2.0977 0 L16.5157 8.6328 L18.71 4.9658 L22.002 6.9385 L17.71 14.0987 L0 3.501 L2.0977 0 Z"
           transform="translate(247.697, 199.05)"
           id="path3454" />
        <path
           style="fill:#161413; fill-rule:nonzero;stroke:none;"
           d="M14.126 6.625 L12.8975 9.2227 L8.293 6.0909 L5.6533 4.3614 L5.6738 4.3125 L8.6953 5.2295 L14.126 6.625 Z M0 3.8887 L16.6475 17.0078 L18.377 13.3418 L15.543 11.1953 L17.293 7.4522 L20.7803 8.2432 L22.627 4.3057 L1.834 0 L0 3.8887 "
           transform="translate(254.087, 187.279)"
           id="path3456" />
        <path
           style="fill:#161413; fill-rule:nonzero;stroke:none;"
           d="M1.5762 8.7578 L13.8135 10.4599 L13.8272 10.4111 L2.6807 5.2295 L4.3057 0 L24.6622 4.0566 L23.419 8.0566 L8.9239 4.5908 L8.9102 4.6464 L13.584 6.7783 L22.3975 11.3486 L21.46 14.3554 L11.4385 13.3349 L6.834 12.6269 L6.4659 12.5156 L6.4444 12.5644 L20.4668 17.5439 L19.168 21.7382 L0 13.8838 L1.5762 8.7578 Z"
           transform="translate(258.664, 167.374)"
           id="path3458" />
        <path
           style="fill:#ffffff; fill-rule:nonzero;stroke:none;"
           d="M0 11.0772 C4.4239 12.2793 8.959 13.1817 13.5777 13.7862 L14.5987 5.9795 L11.0288 8.5567 L11.7373 9.126 L11.5567 11.4874 C8.6812 11.043 5.8409 10.4805 3.042 9.8067 L5.4659 0 L1.8887 0.7081 L2.4654 1.417 L0 11.0772 Z"
           transform="translate(122.248, 226.741)"
           id="path3460" />
        <path
           style="fill:#ffffff; fill-rule:nonzero;stroke:none;"
           d="M0 9.167 C7.0424 13.6191 14.6611 17.2373 22.7314 19.8769 L26.5649 8.417 L22.4189 10.8339 L22.9956 11.3964 L20.9814 17.1748 C20.0161 16.8271 19.0576 16.4668 18.0923 16.0918 L20.4257 10.5488 L16.2866 12.1191 L17.0019 12.8271 L15.8349 15.1748 C14.9253 14.7998 14.0224 14.4111 13.1333 13.9941 L15.4389 8.542 L11.4389 9.8339 L11.5844 10.5488 L10.7163 12.8691 C8.1743 11.6259 5.7158 10.292 3.2988 8.8545 L8.5913 0 L3.8823 1.4238 L4.313 2.2773 L0 9.167 Z"
           transform="translate(94.5923, 216.469)"
           id="path3462" />
        <path
           style="fill:#ffffff; fill-rule:nonzero;stroke:none;"
           d="M1.1465 13.3486 C10.334 13.2519 19.2451 11.9248 27.7041 9.5293 L25.2461 0 L22.8213 4.1396 L23.8222 4.2851 L24.5371 8.3134 C23.0302 8.7031 21.5156 9.0429 19.9883 9.3554 L18.9668 3.2783 L16.2519 7.4248 L17.1201 7.5634 L17.4043 9.8486 C15.2373 10.2236 13.0498 10.5361 10.8418 10.7793 L10.1328 3.0009 L7.1328 6.4248 L8.126 6.8486 L8.4179 11.0087 C6.8545 11.1474 5.292 11.2441 3.709 11.2998 L3.5703 7.2861 L0 10.7099 L1.1465 11.1337 L1.1465 13.3486 Z"
           transform="translate(149.105, 228.011)"
           id="path3464" />
        <path
           style="fill:#ffffff; fill-rule:nonzero;stroke:none;"
           d="M0 6.9668 C3.188 10.3906 6.6118 13.5849 10.2441 16.5576 L11.5083 15.0019 C10.5776 14.2588 9.4243 13.1894 8.5288 12.4043 L11.5356 8.9805 L14.2373 11.4043 L15.6684 9.6885 L11.0981 5.8486 L6.6186 10.751 C5.459 9.6816 4.334 8.5849 3.2085 7.4453 L10.5288 0 L5.6743 0 L6.1118 1.0078 L0 6.9668 Z"
           transform="translate(74.396, 201.919)"
           id="path3466" />
        <path
           style="fill:#ffffff; fill-rule:nonzero;stroke:none;"
           d="M6.4102 0 L2.125 2.4385 L0 5.7021 C1.9517 7.2236 3.9585 8.6953 6.0215 10.0703 L8.6885 6.1396 L8.9732 1.8682 L6.4102 0 Z M5.6812 7.4316 C4.7085 6.751 3.7505 6.0566 2.792 5.334 L6.688 2.4385 L5.6812 7.4316 "
           transform="translate(86.2236, 214.031)"
           id="path3468" />
        <path
           style="fill:#ffffff; fill-rule:nonzero;stroke:none;"
           d="M1.4238 1.4375 L0 1.4375 L0 0 L1.4238 0 L1.4238 1.4375 Z"
           transform="translate(213.569, 219.17)"
           id="path3470" />
        <path
           style="fill:#ffffff; fill-rule:nonzero;stroke:none;"
           d="M1.1455 2 L0 1.1455 L0.8604 0 L2 0.8682 L1.1455 2 Z"
           transform="translate(171.003, 239.471)"
           id="path3472" />
        <path
           style="fill:#ffffff; fill-rule:nonzero;stroke:none;"
           d="M1.1386 2.0078 L0 1.1465 L0.8613 0 L2 0.8681 L1.1386 2.0078 Z"
           transform="translate(161.446, 229.06)"
           id="path3474" />
        <path
           style="fill:#ffffff; fill-rule:nonzero;stroke:none;"
           d="M0.8818 2.0068 L0 0.875 L1.1387 0 L2.0068 1.1318 L0.8818 2.0068 Z"
           transform="translate(129.45, 240.527)"
           id="path3476" />
        <path
           style="fill:#ffffff; fill-rule:nonzero;stroke:none;"
           d="M0.875 2 L0 0.8681 L1.1319 0 L2.0069 1.125 L0.875 2 Z"
           transform="translate(126.602, 239.964)"
           id="path3478" />
        <path
           style="fill:#ffffff; fill-rule:nonzero;stroke:none;"
           d="M0.5483 1.8691 L0 0.5488 L1.3125 0 L1.8613 1.3203 L0.5483 1.8691 Z"
           transform="translate(114.546, 221.74)"
           id="path3480" />
        <path
           style="fill:#ffffff; fill-rule:nonzero;stroke:none;"
           d="M0.5488 1.8613 L0 0.542 L1.3198 0 L1.8613 1.3262 L0.5488 1.8613 Z"
           transform="translate(115.4, 223.879)"
           id="path3482" />
        <path
           style="fill:#ffffff; fill-rule:nonzero;stroke:none;"
           d="M0.5483 1.8681 L0 0.5488 L1.3261 0 L1.875 1.3125 L0.5483 1.8681 Z"
           transform="translate(112.685, 222.886)"
           id="path3484" />
        <path
           style="fill:#ffffff; fill-rule:nonzero;stroke:none;"
           d="M1.4239 1.4239 L0 1.4239 L0 0 L1.4239 0 L1.4239 1.4239 Z"
           transform="translate(215.715, 217.608)"
           id="path3486" />
        <path
           style="fill:#ffffff; fill-rule:nonzero;stroke:none;"
           d="M1.4307 1.4239 L0 1.4239 L0 0 L1.4307 0 L1.4307 1.4239 Z"
           transform="translate(226.974, 206.204)"
           id="path3488" />
        <path
           style="fill:#ffffff; fill-rule:nonzero;stroke:none;"
           d="M6.5634 3.2852 L9.5498 0 L9.5498 7.2783 L5.5634 11.2783 L0 10.9942 L1.9936 8.9932 L5.5634 9.2715 L7.2783 7.2783 L7.2783 4.1455 L6.5634 3.2852 Z"
           transform="translate(137.555, 233.429)"
           id="path3490" />
        <path
           style="fill:#ffffff; fill-rule:nonzero;stroke:none;"
           d="M3.5625 0 L2.708 11.1406 L0.1387 10.9805 L0.7085 3.5703 L0 2.8613 L3.5625 0 Z"
           transform="translate(138.84, 229.435)"
           id="path3492" />
        <path
           style="fill:#ffffff; fill-rule:nonzero;stroke:none;"
           d="M18.106 6.709 L18.398 7.417 L14.0225 11.0908 C12.96 9.8135 11.9248 8.501 10.9248 7.1738 L12.8418 3.7148 L10.9805 1.0068 L6.4107 1.4307 L1.4238 0 L0 1.1455 L5.1397 2.4238 L3.5698 3.8545 L7.9868 9.7021 L9.2373 8.4385 C10.7237 10.417 12.2793 12.3408 13.9112 14.2021 L22.815 6.8476 L18.106 6.709 Z M8.4107 7.1396 L6.4107 3.9932 L10.4038 3.2851 L8.4107 7.1396 "
           transform="translate(58.686, 191.502)"
           id="path3494" />
        <path
           style="fill:#ffffff; fill-rule:nonzero;stroke:none;"
           d="M56.0195 4.3398 L49.0674 0 L47.0742 2.8398 L50.3105 9.1953 C49.8799 9.7715 49.4561 10.3408 49.0186 10.9033 L42.3584 12.4033 L42.3584 14.8271 L46.4004 14.1601 C45.3301 15.4521 44.2119 16.7168 43.0664 17.9521 L35.8018 11.2578 L36.0801 15.6816 L37.0869 15.543 L42.2187 20.8066 C42.2187 20.8066 43.7891 22.9668 41.7959 24.3838 C41.7959 24.3838 40.9346 25.9463 39.0801 24.3838 L33.5234 18.5361 L33.5234 23.5225 L34.5166 23.3838 L35.8574 24.9951 C34.4062 26.2725 32.9336 27.5019 31.4053 28.6963 L27.8145 23.9531 L27.2451 28.8076 L28.2451 28.6621 L29.1348 30.4258 C28.4053 30.9678 27.6553 31.5098 26.9053 32.0303 L23.5371 26.9463 L22.8281 31.5098 L23.6689 31.5098 L24.7939 33.4746 C22.4463 35.0166 20.043 36.4609 17.5645 37.8154 L15.5498 34.2178 L14.1191 38.7812 L15.2578 38.7812 L16.835 42.0596 C16.835 42.0596 13.9805 48.4834 5.5625 47.4766 L2.0068 38.4892 L0 42.6357 L0.8682 42.7744 L2.8545 48.4834 C2.8545 48.4834 15.5566 53.6162 19.2588 40.9267 L18.627 39.5098 C25.3076 35.8642 31.5166 31.4883 37.1768 26.4746 C37.1768 26.4746 39.7119 29.0713 43.3584 25.6621 C45.6426 23.5225 44.4766 19.3691 44.4766 19.3691 C46.9277 15.8271 52.6436 9.7021 56.0195 4.3398 Z M49.7754 3.5625 L52.9219 4.6943 L51.2061 6.9795 L49.7754 3.5625 "
           transform="translate(179.337, 189.377)"
           id="path3496" />
        <path
           style="fill:#ffec00; fill-rule:nonzero;stroke:#161413; stroke-width:1; stroke-linecap:round; stroke-linejoin:round; stroke-dasharray:none;"
           d="M3.4239 0 C3.4239 0 6.2715 2.5698 31.378 9.7056 C31.378 9.7056 53.3379 14.2583 52.1993 25.1118 L52.6162 45.7319 C52.6162 45.7319 49.9209 37.9458 34.2256 34.2309 C34.2256 34.2309 1.4239 25.9595 0 22.5347 L3.4239 0 Z"
           transform="translate(234.252, 121.052)"
           id="path3498" />
        <path
           style="fill:#161413; fill-rule:nonzero;stroke:none;"
           d="M4.0693 7.8306 C3.833 8.6558 3.208 9.1001 2.4306 8.8355 L3.2011 6.1465 C3.9863 6.355 4.2988 7.0494 4.0693 7.8306 Z M1.9091 10.4615 C3.7011 10.9888 5.3818 10.565 5.9443 8.607 C6.1875 7.7471 6.0761 6.584 5.3818 5.9488 C6.2568 5.667 6.7851 5.084 7.0351 4.1983 C7.2714 3.3721 7.1738 2.3995 6.6669 1.6773 C6.1806 0.983 5.5351 0.7676 4.7636 0.5455 L2.8466 0 L0 9.9195 L1.9091 10.4615 Z M5.1669 3.7124 C4.958 4.4659 4.3818 4.8409 3.6455 4.629 L4.3398 2.1983 C5.0976 2.3858 5.3681 2.9898 5.1669 3.7124 "
           transform="translate(238.843, 130.778)"
           id="path3500" />
        <path
           style="fill:#161413; fill-rule:nonzero;stroke:none;"
           d="M6.8487 1.1494 L6.3067 2.9971 L4.3272 2.4136 L3.6885 4.5664 L5.4453 5.0771 L4.9033 6.916 L3.1533 6.4018 L2.501 8.6377 L4.5078 9.2285 L3.9727 11.0684 L0 9.9023 L2.9102 0 L6.8487 1.1494 Z"
           transform="translate(245.481, 132.706)"
           id="path3502" />
        <path
           style="fill:#161413; fill-rule:nonzero;stroke:none;"
           d="M6.1397 3.4097 C5.8545 2.9444 5.4522 2.5176 4.9102 2.3541 C4.3057 2.1773 3.8203 2.4341 3.6328 3.0313 C3.1533 4.6583 6.1045 5.6446 5.292 8.3184 C4.7783 10.0752 3.3682 11.0889 1.5283 10.5479 C0.9863 10.3809 0.3477 9.9991 0 9.5411 L0.5557 7.6797 C0.9238 8.1377 1.3057 8.4776 1.8818 8.6583 C2.5068 8.8389 3.1397 8.5752 3.3272 7.9083 C3.5625 7.1514 3.0488 6.6866 2.6045 6.1241 C1.709 5.0264 1.2363 4.087 1.6602 2.6353 C2.1318 1.0762 3.4453 0 5.1328 0.4927 C5.751 0.6944 6.2647 1.024 6.709 1.4966 L6.1397 3.4097 Z"
           transform="translate(251.17, 134.366)"
           id="path3504" />
        <path
           style="fill:#161413; fill-rule:nonzero;stroke:none;"
           d="M6.5215 1.5488 L5.959 3.3804 L4.4102 2.9082 L1.9453 10.9438 L0 10.3462 L2.4658 2.3022 L0.9307 1.8369 L1.4864 0 L6.5215 1.5488 Z"
           transform="translate(258.073, 136.019)"
           id="path3506" />
        <path
           style="fill:#161413; fill-rule:nonzero;stroke:none;"
           d="M4.9873 7.1719 L3.6191 6.7344 L4.8691 4.2481 L5.5566 2.8321 L5.5771 2.8321 L5.3271 4.4014 L4.9873 7.1719 Z M5.4179 0 L0 9.1104 L1.9375 9.7217 L2.8203 8.1797 L4.7919 8.8047 L4.6191 10.5821 L6.7021 11.2491 L7.4668 0.6509 L5.4179 0 "
           transform="translate(261.435, 138.283)"
           id="path3508" />
        <path
           style="fill:#161413; fill-rule:nonzero;stroke:none;"
           d="M4.7227 2.2509 L4.9873 2.3408 C5.9805 2.6191 6.1123 3.3066 5.876 4.0009 C5.5908 4.8066 5.0498 5.2851 4.1602 4.9804 L3.8203 4.8554 L4.7227 2.2509 Z M1.917 10.4248 L3.4658 5.9111 L3.4863 5.9248 L3.6465 11.0156 L5.6816 11.7099 L5.5078 6.6748 C6.6465 6.4804 7.3828 5.7089 7.7647 4.6396 C8.6748 1.9726 6.5078 1.0839 5.2852 0.6533 L3.3408 0 L0 9.7578 L1.917 10.4248 "
           transform="translate(269.199, 140.107)"
           id="path3510" />
        <path
           style="fill:#161413; fill-rule:nonzero;stroke:none;"
           d="M5.626 0.7285 L1.9033 10.3682 L0 9.6182 L3.7226 0 L5.626 0.7285 Z"
           transform="translate(276.283, 142.726)"
           id="path3512" />
        <path
           style="fill:#ffec00; fill-rule:nonzero;stroke:#161413; stroke-width:1; stroke-linecap:round; stroke-linejoin:round; stroke-dasharray:none;"
           d="M0 0 C0 0 35.6563 6.7056 56.7617 36.8057 L55.4775 43.3652 C55.4775 43.3652 33.5166 12.2686 1.708 6.9868 L0 0 Z"
           transform="translate(173.92, 38.4673)"
           id="path3514" />
        <path
           style="fill:#ffec00; fill-rule:nonzero;stroke:#161413; stroke-width:1; stroke-linecap:round; stroke-linejoin:round; stroke-dasharray:none;"
           d="M56.769 0 C56.769 0 21.1132 6.7056 0 36.7988 L1.2846 43.3584 C1.2846 43.3584 23.2592 12.2686 55.061 6.9868 L56.769 0 Z"
           transform="translate(67.8052, 38.4673)"
           id="path3516" />
        <path
           style="fill:#ffec00; fill-rule:nonzero;stroke:#161413; stroke-width:1; stroke-linecap:round; stroke-linejoin:round; stroke-dasharray:none;"
           d="M2.2779 5.7022 C2.2779 5.7022 23.6763 0 44.7818 6.1294 L46.2124 7.8413 L45.2056 12.1231 C45.2056 12.1231 23.6763 4.9937 0.7085 12.4111 L0 7.8413 L2.2779 5.7022 Z"
           transform="translate(126.144, 37.7588)"
           id="path3518" />
        <path
           style="fill:#ffec00; fill-rule:nonzero;stroke:#161413; stroke-width:0.75; stroke-linecap:butt; stroke-linejoin:miter; stroke-dasharray:none;"
           d="M31.5586 0 C43.4619 1.8647 52.5674 12.1611 52.5674 24.5791 C52.5674 38.3335 41.4063 49.4771 27.669 49.4771 C13.9107 49.4771 2.771 38.3335 2.771 24.5791 C2.771 12.1611 11.8692 1.8647 23.7657 0 C10.334 1.8892 0 13.4214 0 27.3779 C0 42.6572 12.376 55.04 27.669 55.04 C42.9414 55.04 55.3242 42.6572 55.3242 27.3779 C55.3242 13.4214 44.9971 1.8892 31.5586 0 Z"
           transform="translate(121.561, 22.6011)"
           id="path3520" />
        <path
           style="fill:#ffec00; fill-rule:nonzero;stroke:#161413; stroke-width:0.888974; stroke-linecap:butt; stroke-linejoin:miter; stroke-dasharray:none;"
           d="M7.7929 0.3091 C6.5214 0.1079 5.2294 0 3.9033 0 C2.5771 0 1.2783 0.1079 0 0.3091 C1.2783 0.1323 2.5771 0.021 3.9033 0.021 C5.2158 0.021 6.5214 0.1323 7.7929 0.3091 Z"
           transform="translate(145.326, 22.292)"
           id="path3522" />
        <path
           style="fill:#e20010; fill-rule:nonzero;stroke:#161413; stroke-width:0.888974; stroke-linecap:butt; stroke-linejoin:miter; stroke-dasharray:none;"
           d="M6.9659 0.2881 C5.834 0.1114 4.667 0 3.4864 0 C2.2989 0 1.1387 0.1114 0 0.2881 C1.1387 0.1182 2.2989 0.0381 3.4864 0.0381 C4.667 0.0381 5.834 0.1182 6.9659 0.2881 Z"
           transform="translate(145.743, 22.2539)"
           id="path3524" />
        <path
           style="fill:#e20010; fill-rule:nonzero;stroke:#161413; stroke-width:0.75; stroke-linecap:butt; stroke-linejoin:miter; stroke-dasharray:none;"
           d="M28.3775 0 C38.9409 1.6602 47.0181 10.8101 47.0181 21.8496 C47.0181 34.0694 37.1079 43.98 24.898 43.98 C12.6748 43.98 2.7779 34.0694 2.7779 21.8496 C2.7779 10.8101 10.8482 1.6602 21.4116 0 C9.313 1.688 0 12.0777 0 24.6382 C0 38.3926 11.1397 49.5362 24.898 49.5362 C38.6353 49.5362 49.7964 38.3926 49.7964 24.6382 C49.7964 12.0777 40.4761 1.688 28.3775 0 Z"
           transform="translate(124.332, 22.542)"
           id="path3526" />
        <path
           style="fill:#e20010; fill-rule:nonzero;stroke:#161413; stroke-width:0.75; stroke-linecap:butt; stroke-linejoin:miter; stroke-dasharray:none;"
           d="M4.8125 0 C20.0849 0 32.4677 12.397 32.4677 27.6728 C32.4677 41.0351 22.9951 52.1924 10.3896 54.7832 L0 49.3135 C1.5556 49.6225 3.1601 49.772 4.8125 49.772 C18.5498 49.772 29.7109 38.6284 29.7109 24.874 C29.7109 11.1328 18.5498 0 4.8125 0 Z"
           transform="translate(144.417, 22.3062)"
           id="path3528" />
        <path
           style="fill:#ffec00; fill-rule:nonzero;stroke:#161413; stroke-width:0.75; stroke-linecap:butt; stroke-linejoin:miter; stroke-dasharray:none;"
           d="M4.8408 0 C17.0507 0 26.9609 9.8828 26.9609 22.1098 C26.9609 32.5341 19.7314 41.2959 10.0078 43.6259 L0 49.3242 C1.5556 49.6333 3.1806 49.7964 4.8408 49.7964 C18.5781 49.7964 29.7392 38.6528 29.7392 24.8984 C29.7392 11.1572 18.5781 0 4.8408 0 Z"
           transform="translate(144.389, 22.2818)"
           id="path3530" />
        <path
           style="fill:#ffec00; fill-rule:nonzero;stroke:#161413; stroke-width:0.888974; stroke-linecap:round; stroke-linejoin:round; stroke-dasharray:none;"
           d="M1.4238 0.1562 C1.4238 0.1562 0 2.7158 5.1328 4.5737 C5.1328 4.5737 8.9873 6.1396 8.9873 9.1435 L8.9873 14.123 C8.9873 14.123 8.4111 11.9839 5.5566 10.56 C5.5566 10.56 0.5693 9.7094 0.8545 5.1362 L1.1328 0 "
           transform="translate(168.933, 36.8941)"
           id="path3532" />
        <path
           style="fill:#ffec00; fill-rule:nonzero;stroke:#161413; stroke-width:0.888974; stroke-linecap:round; stroke-linejoin:round; stroke-dasharray:none;"
           d="M7.9869 0.1421 C7.9869 0.1421 9.1329 2.2744 4.0005 4.1323 C4.0005 4.1323 0.146 5.6982 0.146 8.7021 L0.7222 14.4038 C0.7222 14.4038 0 12.1084 3.5699 10.4004 C3.5699 10.4004 8.8414 9.122 8.8414 5.1357 L8.272 0 "
           transform="translate(120.435, 37.3355)"
           id="path3534" />
        <path
           style="fill:#161413; fill-rule:nonzero;stroke:none;"
           d="M0 0.8643 C0 0.8643 0.7148 0.2881 1.2851 0 C1.2851 0 2.5625 0 2.8476 1.4233 C2.8476 1.4233 0.8545 0.7148 0 0.8643 Z"
           transform="translate(265.63, 129.893)"
           id="path3536" />
        <path
           style="fill:#f39100; fill-rule:nonzero;stroke:none;"
           d="M20.0225 56.2134 C20.0225 56.2134 0 51.727 17.7515 30.3325 C17.7515 30.3325 29.9405 17.9219 15.3902 5.7261 C15.3902 5.7261 13.043 0 19.0367 1.4966 C19.0367 1.4966 28.732 6.6914 28.3081 19.9497 C28.3081 19.9497 28.3081 26.6518 22.3145 33.6387 C22.3145 33.6387 15.0362 41.771 16.4668 46.626 C16.4668 46.626 18.0362 50.331 21.7383 50.7583 C21.7383 50.7583 22.3145 55.4668 20.1753 55.894 "
           transform="translate(-10.4107, 32.21)"
           id="path3538" />
        <path
           style="fill:#f39100; fill-rule:nonzero;stroke:none;"
           d="M0.2779 18.4986 C0 20.7803 3.1324 21.7837 3.1324 21.7837 C2.4239 20.353 3.271 19.6445 3.271 19.6445 C3.4239 19.0679 6.2715 20.2105 6.2715 20.2105 L7.7022 22.1377 C7.7022 22.1377 9.2994 24.166 9.0913 25.0303 C9.0913 25.0303 6.9449 25.982 5.8755 25.2422 L7.9107 28.1348 C7.9107 28.1348 8.4454 30.3779 10.3692 29.9512 L10.7998 29.1973 C10.7998 29.1973 14.9668 26.9541 16.2583 27.4854 C16.2583 27.4854 15.939 31.0137 14.3277 31.1177 L12.0845 31.0137 L12.8345 33.2569 L15.8277 32.6216 L18.9322 29.3018 L18.606 25.982 L21.1758 22.1377 L22.1338 18.9258 L21.0713 17.3179 L19.0367 16.6826 C19.0367 16.6826 19.9952 20.1065 19.252 21.8184 L14.8765 25.0303 C14.8765 25.0303 8.6607 23.103 9.7232 17.9673 L7.1534 16.7866 L7.7022 9.0913 L7.8062 6.0879 L7.48 3.7403 L8.7647 0.6358 L7.2715 0 L2.7779 1.7124 L2.9932 3.1045 L4.2784 4.8169 L3.7432 7.3794 L2.7779 10.5879 L1.3819 15.5122 L2.4585 16.6826 L0.2779 18.4986 Z"
           transform="translate(32.3017, 8.8462)"
           id="path3540" />
        <path
           style="fill:#f39100; fill-rule:nonzero;stroke:none;"
           d="M7.1675 5.1358 C7.1675 5.1358 2.7852 7.6084 5.0283 8.9869 C5.0283 8.9869 7.709 7.7124 8.1255 10.1675 C8.1255 10.1675 9.4175 14.0186 8.98 14.6543 C8.98 14.6543 7.3897 14.9737 8.1255 16.4703 C8.1255 16.4703 9.4175 19.1548 10.4868 18.9429 C10.4868 18.9429 12.5152 17.8662 13.2652 18.3975 L13.4873 19.7901 L12.4038 20.3213 L10.0635 20.2173 L5.8823 18.2935 L5.1392 16.6997 C5.1392 16.6997 3.2154 19.6861 8.2437 22.7871 C8.2437 22.7871 4.4932 23.4292 3.0073 20.8667 L0.646 13.6958 L0.75 8.6709 L0 7.4903 L1.2915 4.6045 L1.8267 2.6841 L5.1392 0 L6.313 0 L6.6397 2.0347 L5.459 2.7886 L5.7783 3.9551 L7.1675 5.1358 Z"
           transform="translate(38.8857, 5.7246)"
           id="path3542" />
        <path
           style="fill:#f39100; fill-rule:nonzero;stroke:none;"
           d="M2.0346 2.8789 L0 0.3193 L2.5693 0.4238 L4.7158 0 L5.7783 0 L4.2778 2.2431 L2.0346 2.8789 Z"
           transform="translate(46.2754, 5.044)"
           id="path3544" />
        <path
           style="fill:#ffec00; fill-rule:nonzero;stroke:none;"
           d="M6.9521 14.8589 C6.9521 14.8589 0 26.5195 10.376 39.0347 C10.376 39.0347 14.5498 44.0737 18.0781 43.4243 C18.0781 43.4243 17.7515 45.5562 15.293 45.6675 C15.293 45.6675 20.1059 47.1294 22.2519 46.2368 L23.8496 43.9556 L25.9609 43.9556 C25.9609 43.9556 27.1694 44.813 27.3774 41.8164 L28.5234 41.8164 L29.8433 40.7539 L28.9888 39.3579 L28.0234 39.146 C28.0234 39.146 20.5434 41.5005 17.8628 39.6773 L13.6958 34.2217 L11.4526 29.5166 L11.9805 25.3462 L14.439 20.5264 L16.8974 15.939 L20.1059 11.2232 L18.8281 6.3096 L17.8628 3.3125 L15.4043 0.3159 L13.5845 0 C13.5845 0 13.7998 6.4102 6.9521 14.8589 Z"
           transform="translate(26.3081, 80.5132)"
           id="path3546" />
        <path
           style="fill:#f39100; fill-rule:nonzero;stroke:none;"
           d="M6.4101 2.3545 L3.2778 9.7719 C3.2778 9.7719 9.5561 10.3379 6.7016 12.9004 C6.7016 12.9004 4.417 17.04 3.4238 18.0366 C3.4238 18.0366 1.7085 22.7524 0.5625 23.4604 L0 29.6001 L1.7085 34.0102 C1.7085 34.0102 3 37.1562 4.8476 37.2954 C4.8476 37.2954 8.2715 38.0039 8.4101 38.8681 L9.4106 40.7192 C9.4106 40.7192 11.9799 42.2924 16.4043 41.4277 C16.4043 41.4277 17.2446 41.1118 18.2934 40.851 C18.3559 40.8232 18.4253 40.8164 18.4809 40.792 C20.2173 40.3857 22.3911 40.1738 22.3911 41.709 L21.1059 43.1396 L19.9599 43.1396 L19.2519 45.56 L16.6821 45.1396 C16.6821 45.1396 16.2514 47.4282 14.8344 47.56 C14.8344 47.56 14.9668 44.4243 14.1123 44.5703 L16.2514 44.4243 C16.2514 44.4243 16.2514 43.1396 15.5429 42.8584 C15.5429 42.8584 19.3974 41.709 19.6753 42.4311 C19.6753 42.4311 19.7519 41.1465 18.6128 41.0005 C18.6128 41.0005 11.7646 42.9243 8.7715 40.8584 C8.7715 40.8584 5.7016 38.726 5.2016 38.226 L6.3408 36.58 L4.4931 32.875 L4.3403 28.52 C4.3403 28.52 6.7016 21.5332 9.4799 18.7451 C9.4799 18.7451 13.9038 11.8379 11.9799 8.1987 C11.9799 8.1987 9.334 0 6.4101 2.3545 Z"
           transform="translate(33.7256, 79.19)"
           id="path3548" />
        <path
           style="fill:#f39100; fill-rule:nonzero;stroke:none;"
           d="M23.2451 97.0893 C23.2451 97.0893 23.023 98.9399 22.2105 99.5962 C22.0786 99.6933 21.9605 99.7597 21.8145 99.7978 C21.8145 99.7978 19.6128 100.329 18.6407 98.728 C18.6407 98.728 18.9673 101.294 18.3213 101.51 C18.3213 101.51 13.7237 101.621 13.5015 101.294 C13.5015 101.294 9.0147 93.3769 7.9385 93.1616 C7.9385 93.1616 7.8408 90.3803 6.5493 89.7378 C6.5493 89.7378 7.9107 88.2031 7.5562 87.1054 C7.5562 87.1054 5.9175 85.251 4.9517 84.9214 C4.9517 84.9214 2.5977 83.105 6.8755 81.6152 L4.2085 81.1777 C4.2085 81.1777 4.9517 78.6186 4.5142 78.0874 C4.5142 78.0874 2.4932 76.6914 5.063 76.0522 C5.063 76.0522 4.2085 78.3965 6.8755 77.9761 C6.8755 77.9761 9.0147 76.9067 8.0562 75.622 C8.0562 75.622 6.8755 73.4829 9.3413 72.1977 C9.3413 72.1977 9.9732 69.8432 8.6953 68.9892 C8.6953 68.9892 7.6328 67.7114 11.6885 67.3882 C11.6885 67.3882 9.876 63.9643 9.1192 63.7558 C9.1192 63.7558 10.1817 60.332 12.1192 61.2837 C12.1192 61.2837 12.2163 59.0405 11.1538 58.2973 L14.8975 57.2275 C14.8975 57.2275 15.9668 53.0503 19.3907 53.5884 C19.3907 53.5884 16.189 49.7373 17.5782 48.9839 C17.5782 48.9839 19.2866 46.7407 21.5298 48.0254 C21.5298 48.0254 16.6128 39.8926 19.0645 40.4311 C19.0645 40.4311 18.9673 38.4028 20.4536 39.2573 C20.4536 39.2573 18.9673 34.5415 22.2871 34.3296 L24.2036 34.8608 C24.2036 34.8608 25.4888 30.4853 28.1553 30.27 L25.0581 27.2734 L26.0235 25.9922 C26.0235 25.9922 23.3496 24.1758 26.8848 22.4638 C26.8848 22.4638 29.2388 20.2138 26.0235 18.0713 C26.0235 18.0713 26.9956 15.9389 28.5933 15.9389 C30.1973 15.9389 28.5933 15.6162 28.5933 15.6162 C28.5933 15.6162 28.2666 20.9673 29.982 21.7104 C29.982 21.7104 30.9473 20.1025 30.3018 18.936 C30.3018 18.936 31.0518 16.6787 33.4058 20.6338 C33.4058 20.6338 35.9756 23.6377 40.4693 23.1064 C40.4693 23.1064 39.0801 21.0747 37.3579 20.5434 C37.3579 20.5434 35.7603 16.5742 39.7124 17.3281 C39.7124 17.3281 42.1778 16.3628 43.1363 12.8345 C43.1363 12.8345 42.7124 24.1758 41.4278 26.4189 C41.4278 26.4189 43.1363 28.6626 45.0669 21.4951 C46.9908 14.331 45.0669 21.1792 45.0669 21.1792 L48.1646 17.7553 C48.1646 17.7553 46.0323 24.1758 47.7408 25.2383 C47.7408 25.2383 50.9424 20.7519 50.7339 18.2866 C50.7339 18.2866 55.7554 21.7104 55.7554 23.4223 C55.7554 23.4223 61.4224 19.9985 65.395 20.7519 C65.395 20.7519 70.6319 21.1792 73.0835 18.6059 C73.0835 18.6059 79.8272 18.6059 79.9312 21.4951 L81.1118 19.9985 L82.6123 20.7519 L83.9942 19.4673 L85.9248 19.04 L87.8555 17.8594 L87.1055 16.2583 L84.2095 15.5117 L82.1885 15.8315 L77.2574 17.2236 L74.792 17.7553 L72.3404 18.1821 C72.3404 18.1821 65.1729 19.1513 63.4575 18.8315 L54.6929 17.8594 L49.1299 14.331 L43.1363 10.5913 L40.4693 10.8032 L36.5034 14.5464 L33.6211 10.8032 L29.982 7.2715 L25.2803 1.6045 L21.5298 0 L20.8911 2.9829 L18.7447 7.4834 L18.9673 11.9839 L20.3491 14.6509 C20.3491 14.6509 21.106 23.6377 20.0991 28.4853 C20.0991 28.4853 15.8208 39.0454 12.8345 40.4692 C12.8345 40.4692 3.417 56.436 4.709 62.4297 C5.9868 68.4199 5.1255 62.5752 5.1255 62.5752 C5.1255 62.5752 0 76.271 1.1392 80.5459 C1.1392 80.5459 1.2847 87.2514 3.8545 90.2344 C3.8545 90.2344 11.2578 99.0893 11.1192 101.51 C11.1192 101.51 11.4107 103.788 15.1128 102.506 C15.1128 102.506 17.2515 101.51 18.8145 102.076 C18.8145 102.076 20.6758 102.934 20.9536 100.652 C20.9536 100.652 26.0928 101.656 24.9536 99.0893 C24.9536 99.0893 24.9536 97.5161 23.2451 97.0893 Z"
           transform="translate(9.9106, 30.6646)"
           id="path3550" />
        <path
           style="fill:#161413; fill-rule:nonzero;stroke:none;"
           d="M102.475 41.959 C91.0576 46.2475 80.7993 44.9556 80.7993 44.9556 C72.6665 43.6709 64.9643 36.6909 64.9643 36.6909 C62.395 35.8335 63.541 28.9853 63.541 28.9853 C64.687 27.8359 64.8188 25.4155 64.8188 25.4155 C64.9643 23.1411 67.2563 22.7139 67.2563 22.7139 C70.104 22.4326 70.8125 21.1445 70.8125 21.1445 L70.8125 18.2866 L69.3193 17.1196 L69.3193 15.727 C68.0342 17.8594 64.5063 17.0122 64.5063 17.0122 C61.6172 14.7583 64.937 9.8447 64.937 9.8447 C65.041 9.1953 68.4648 9.2993 68.4648 9.2993 L69.3193 10.06 L69.8608 7.9209 C71.6806 5.2402 69.75 3.8476 69.75 3.8476 C70.5 0.104 67.4023 0.4238 67.4023 0.4238 C65.6728 0.9687 63.1035 0.7534 63.1035 0.7534 C62.0405 0 60.0058 0.7534 60.0058 0.7534 C58.9433 1.1807 56.582 0.8579 56.582 0.8579 C52.5259 0.3193 51.5674 2.3476 51.5674 2.3476 C49.6367 4.9238 46.5669 6.1636 46.5669 6.1636 C43.143 6.1636 44.5669 7.8828 44.5669 7.8828 C45.7129 8.4521 45.5737 9.8828 45.5737 9.8828 C44.143 10.4487 43.7124 15.0049 43.7124 15.0049 L42.1499 17.2969 C43.143 18.2866 42.4345 19.5713 42.4345 19.5713 C40.726 20.7207 40.726 24.1445 40.726 24.1445 C40.8652 29.4228 39.5801 30.4126 39.5801 30.4126 C35.1562 36.5522 37.8716 39.1113 37.8716 39.1113 C44.5669 58.2241 31.3086 66.208 31.3086 66.208 C24.7524 71.0625 18.8281 83.1123 18.8281 83.1123 L18.8281 78.834 L14.7724 80.7578 L16.0503 76.9067 L12.1885 77.334 L15.4043 74.3403 L11.5566 72.4131 L15.8349 71.3437 L12.8413 68.1313 L17.3281 67.2705 L15.1958 63.645 L19.6894 64.0757 L17.7588 60.0093 L22.2451 60.4365 L20.3213 56.5854 L24.3979 57.4394 C24.5996 56.3701 21.8286 53.5884 21.8286 53.5884 L26.3149 52.9463 L22.8911 49.9492 L26.9609 49.0879 L23.3149 46.5288 L26.9609 43.751 L22.4604 42.6811 L25.6762 38.8301 L20.5434 38.6182 L22.4604 34.3296 C18.4048 35.4062 17.3281 34.7568 17.3281 34.7568 C19.0366 33.2671 19.0366 29.8433 19.0366 29.8433 C13.0429 28.3467 15.4043 34.1211 15.4043 34.1211 C29.9614 46.3135 17.7588 58.7173 17.7588 58.7173 C0 80.1152 20.0434 84.602 20.0434 84.602 C26.8916 87.1787 18.6196 103.149 18.6196 103.149 C19.7588 104.003 20.8979 114.844 20.8979 114.844 C22.1826 115.987 29.6001 125.255 29.6001 125.255 C29.3086 129.249 32.0239 129.676 32.0239 129.676 C33.7392 130.96 37.5869 128.96 37.5869 128.96 C41.143 130.391 41.872 127.825 41.872 127.825 C47.0044 128.252 45.8515 126.103 45.8515 126.103 C45.8515 122.112 39.4345 122.408 39.4345 122.408 C36.4477 122.696 35.8784 120.828 35.8784 120.828 C34.0171 118.126 32.1626 108.569 32.1626 108.569 C31.1694 103.576 36.0102 100.01 36.0102 100.01 C35.3022 107.427 38.1562 109.566 38.1562 109.566 C39.7192 111.132 47.0044 119.838 47.0044 119.838 C47.5669 122.828 55.269 123.116 55.269 123.116 C60.9712 123.97 60.832 120.984 60.832 120.984 C64.541 122.408 64.395 118.984 64.395 118.984 C65.2563 119.411 65.6728 118.834 65.6728 118.834 C69.2427 115.706 64.541 115.278 64.541 115.278 C59.5473 117.123 55.5468 116.414 55.5468 116.414 C53.5605 114.844 50.4145 109.715 50.4145 109.715 C45.4282 104.291 54.561 93.5923 54.561 93.5923 C56.5542 91.5923 57.4082 89.3174 57.4082 89.3174 C59.7002 84.4629 52.8525 76.7676 52.8525 76.7676 C52.9843 75.9033 53.269 75.3335 53.269 75.3335 C63.8325 68.9233 66.5483 57.2275 66.5483 57.2275 C75.2363 58.2241 87.0708 54.8071 87.0708 54.8071 C91.9326 57.7939 92.2104 53.373 92.2104 53.373 C95.2036 55.5156 97.9189 50.9526 97.9189 50.9526 C99.3359 51.3833 100.343 49.5293 100.343 49.5293 C101.197 49.6714 101.475 47.5288 101.475 47.5288 C104.184 49.0879 104.753 46.2475 104.753 46.2475 C107.607 47.0947 108.476 44.6743 108.476 44.6743 C108.615 41.2505 102.475 41.959 102.475 41.959 Z M91.6338 45.8203 C91.6338 45.8203 88.3559 48.0981 84.2236 45.9595 C84.2236 45.9595 88.7861 46.3862 91.6338 45.8203 Z M72.2431 43.5317 L72.6665 44.5356 L71.104 44.2471 L70.25 42.8237 C70.25 42.8237 71.8125 43.3896 72.2431 43.5317 Z M62.8257 2.6079 C63.6797 1.8892 67.1035 1.7432 67.1035 1.7432 C69.3955 2.7466 69.8193 5.7368 69.8193 5.7368 C69.6733 8.3096 68.2427 7.3061 68.2427 7.3061 C66.2495 6.8789 65.8188 7.8828 65.8188 7.8828 C65.9717 7.3061 65.541 6.459 65.541 6.459 C61.8325 6.459 63.4018 9.0181 63.4018 9.0181 C59.1235 10.1641 60.2558 6.5976 60.2558 6.5976 C60.6865 6.0317 62.8257 2.6079 62.8257 2.6079 Z M61.4087 1.7432 C59.2695 4.7471 57.2627 1.7432 57.2627 1.7432 C58.4082 2.7466 61.4087 1.7432 61.4087 1.7432 Z M55.415 2.0312 C55.8388 5.0283 52.5605 3.7432 52.5605 3.7432 C53.415 4.0244 55.415 2.0312 55.415 2.0312 Z M53.9843 5.7368 C53.9843 5.7368 54.1303 7.7334 55.6997 7.7334 C55.6997 7.7334 58.6933 8.5913 59.4087 9.5879 C59.4087 9.5879 60.2558 11.2998 60.9712 10.1641 C60.9712 10.1641 63.541 11.4385 61.4087 12.4424 C61.4087 12.4424 60.5547 14.0151 61.8325 14.0151 C61.8325 14.0151 60.6865 18.1475 65.1103 17.8594 C65.1103 17.8594 69.6733 17.8594 69.6733 18.4429 C69.6733 18.4429 69.6733 22.2871 65.1103 20.8633 C65.1103 20.8633 62.6933 20.1406 62.2632 20.8633 C62.2632 20.8633 59.4087 22.7139 57.6928 18.4429 C57.6928 18.4429 55.9843 16.1475 56.6928 15.1577 C56.6928 15.1577 57.9848 14.8623 58.4082 17.1509 C58.4082 17.1509 59.7002 16.7168 58.9712 14.7236 C58.9712 14.7236 58.2627 11.0117 56.2763 12.3032 C56.2763 12.3032 54.415 12.8691 55.9843 11.1572 C55.9843 11.1572 57.8388 9.5879 55.415 9.2993 L53.269 9.1606 C53.269 9.1606 51.8452 9.0181 52.6997 10.8725 C52.6997 10.8725 52.4145 12.5845 53.5605 14.0151 C53.5605 14.0151 53.415 16.0083 52.8525 16.5747 C52.8525 16.5747 53.1303 19.29 56.2763 21.0019 C56.2763 21.0019 57.9848 22.2871 60.2558 22.4326 C60.2558 22.4326 62.9712 22.2871 63.541 23.7036 C63.541 23.7036 64.8188 26.5649 63.2563 26.7075 C63.2563 26.7075 60.1167 23.7036 58.5473 23.5649 C58.5473 23.5649 55.269 24.5683 54.2759 22.2871 C54.2759 22.2871 51.1367 21.1445 51.8452 13.873 C51.8452 13.873 52.123 9.8828 50.706 9.0181 C50.706 9.0181 50.706 6.3164 53.9843 5.7368 Z M59.7002 26.2803 C58.9712 28.1313 56.5542 27.1274 56.5542 27.1274 C56.5542 29.8433 54.6928 28.9853 54.6928 28.9853 C50.9912 26.8462 50.9912 22.9951 50.9912 22.9951 C51.7065 24.4258 56.6928 24.707 56.6928 24.707 C59.978 24.9956 59.7002 26.2803 59.7002 26.2803 Z M50.4145 6.0317 C50.4145 6.0317 49.5605 8.5913 48.4214 8.7368 C48.4214 8.7368 46.1362 9.2993 45.7129 7.4487 C45.7129 7.4487 44.8584 6.5976 50.4145 6.0317 Z M47.0044 16.5747 C46.0044 14.0151 47.2822 13.727 47.2822 13.727 L49.4282 11.876 C48.2822 14.7236 49.1367 19.9985 49.1367 19.9985 C47.2822 19.1514 47.7129 21.7104 47.7129 21.7104 C45.2959 21.1445 45.2959 18.0054 45.2959 18.0054 C48.4214 19.9985 47.0044 16.5747 47.0044 16.5747 Z M46.1362 23.5649 C48.1435 24.9956 48.4214 23.1411 48.4214 23.1411 L49.2754 24.1445 C49.5605 25.8428 53.7065 30.2705 53.7065 30.2705 C54.2759 32.1245 49.4282 30.9785 49.4282 30.9785 C49.4282 30.2705 44.0044 24.1445 44.0044 24.1445 C43.289 22.1479 46.1362 23.5649 46.1362 23.5649 Z M43.7124 28.8398 C43.7124 28.8398 46.5669 29.9892 48.2822 34.1211 C48.2822 34.1211 49.5605 35.8335 51.269 34.5449 L50.5605 33.5552 L52.4145 33.4131 L54.415 31.8433 C54.415 31.8433 57.6928 32.8467 59.4087 30.9785 C59.4087 30.9785 61.9712 31.1211 57.4082 37.3994 C57.4082 37.3994 54.9843 37.5454 54.415 36.9795 C54.415 36.9795 52.6997 36.5522 53.269 37.9687 L54.561 40.6846 C54.561 40.6846 49.4282 40.4033 47.8447 35.6875 C47.8447 35.6875 47.4282 31.2739 42.4345 29.8433 C42.4345 29.8433 40.1567 27.8359 43.7124 28.8398 Z M42.0039 31.8433 C42.0039 31.8433 43.8584 32.9717 45.2959 34.6977 L45.4282 35.6875 C45.4282 35.6875 42.2885 33.9756 40.726 33.9756 C40.726 33.9756 39.5801 30.5517 42.0039 31.8433 Z M41.4345 35.8335 C42.8584 37.3994 47.0044 38.8301 47.0044 38.8301 L46.8589 40.6846 C46.1362 39.3994 41.5805 38.6914 41.5805 38.6914 L40.726 37.8267 C38.8647 36.1147 41.4345 35.8335 41.4345 35.8335 Z M53.8384 80.3306 C53.8384 80.3306 50.706 82.6123 50.1367 84.1816 C50.1367 84.1816 54.415 83.1782 54.561 87.1787 C54.561 87.1787 55.8388 90.1684 49.1367 88.7446 C49.1367 88.7446 50.4145 92.1684 50.9912 92.7417 C50.9912 92.7417 49.5605 93.4502 46.5669 93.0229 L50.2827 96.3076 L49.1367 98.5859 C49.1367 98.5859 44.8584 97.5825 44.0044 98.4399 L46.8589 101.301 L46.7129 104.003 C46.7129 104.003 43.8584 103.864 43.4345 105 C43.4345 105 47.0044 105.288 46.8589 107 C46.8589 107 46.0044 108.712 45.0044 109.566 L48.9975 109.997 C48.9975 109.997 46.5669 112.282 48.852 113.42 C48.852 113.42 51.269 113.698 51.269 114.556 C51.269 114.556 48.852 116.268 52.6997 116.695 C52.6997 116.695 58.6933 118.126 63.9643 116.268 C63.9643 116.268 66.5483 115.987 65.1103 118.407 C65.1103 118.407 63.541 116.695 61.5405 117.98 C61.5405 117.98 64.687 119.981 62.5478 120.546 C62.5478 120.546 61.2627 120.984 60.9712 119.692 C60.9712 119.692 58.8388 118.834 58.1167 119.838 C58.1167 119.838 61.6865 121.123 58.8388 122.828 C58.8388 122.828 52.4145 122.828 49.9907 121.262 C49.9907 121.262 47.1367 116.126 38.0107 106.573 C38.0107 106.573 38.2954 99.2944 37.7187 98.1587 C37.7187 98.1587 46.5669 91.7378 50.1367 81.0391 L50.9912 79.9033 L51.7065 78.1914 C51.7065 78.1914 52.9843 80.3306 53.8384 80.3306 Z M98.2041 49.6714 C98.2041 49.6714 94.9189 48.0981 94.3496 49.3833 C94.3496 49.3833 94.0718 50.2373 95.9189 50.0918 C95.9189 50.0918 97.7734 51.3833 95.0576 52.6577 C95.0576 52.6577 94.3496 54.2378 91.0576 51.9492 C91.0576 51.9492 89.6406 51.8037 89.0639 52.6577 C89.0639 52.6577 91.7798 53.5156 90.2173 54.665 C90.2173 54.665 88.2168 55.6548 88.3559 52.9531 C88.3559 52.9531 73.6738 58.7974 58.6933 55.085 L58.2627 55.936 C58.2627 55.936 53.415 55.7934 52.2759 55.085 C52.2759 55.085 53.8384 56.6514 55.9843 56.9394 C55.9843 56.9394 55.9843 58.7974 58.6933 58.6514 C58.6933 58.6514 60.4087 58.6514 58.6933 61.3599 C58.6933 61.3599 58.4082 66.0654 49.852 62.2212 C49.852 62.2212 51.4145 64.2143 55.5468 65.645 C55.5468 65.645 57.1303 66.3535 54.8384 68.208 C54.8384 68.208 53.7065 68.7739 53.7065 70.3398 C53.7065 70.3398 52.5605 73.7642 44.5669 68.0654 C44.5669 68.0654 44.289 70.0586 46.0044 70.3398 C46.0044 70.3398 47.5669 73.3437 49.2754 74.1982 C49.2754 74.1982 47.9907 76.4795 46.7129 76.9067 C46.7129 76.9067 49.5605 77.7646 48.852 79.9033 C48.852 79.9033 46.4282 89.3174 38.1562 96.1655 C38.1562 96.1655 29.6001 103.149 30.1626 107.854 C30.1626 107.854 31.7324 117.272 34.4477 121.404 C34.4477 121.404 34.2949 122.828 38.726 122.974 C38.726 122.974 42.4345 122.974 44.143 125.394 C44.143 125.394 44.7197 127.106 44.143 127.106 C44.143 127.106 42.5805 127.249 42.0039 125.963 L40.1567 126.54 C40.1567 126.54 41.0107 128.818 39.7192 128.54 C39.7192 128.54 37.7187 127.537 37.4409 126.828 L35.8784 127.394 L36.7329 128.398 C36.7329 128.398 34.4477 128.679 33.4546 128.96 C33.4546 128.96 33.0239 129.964 31.6001 126.967 C31.6001 126.967 27.7456 120.828 26.6069 119.981 C26.6069 119.981 26.4609 117.98 25.7524 117.272 C25.7524 117.272 23.6064 115.987 25.8843 114.983 L27.7456 113.848 C27.7456 113.848 22.3286 112.282 22.7593 110.281 C22.7593 110.281 22.4604 108.712 27.4677 108.291 C27.4677 108.291 23.4677 107.566 24.3218 105.715 C24.3218 105.715 22.0439 105 22.7593 103.149 C22.7593 103.149 23.1826 100.579 24.8984 103.013 C24.8984 103.013 26.8916 105.854 29.3086 102.43 C29.3086 102.43 26.1762 100.718 26.7387 99.5893 C26.7387 99.5893 26.8916 98.2978 30.3154 100.298 L33.1631 100.01 L27.4677 96.0195 C27.4677 96.0195 26.1762 95.4433 27.1762 94.0127 C27.1762 94.0127 27.4677 92.019 29.0307 93.7314 L33.8784 94.7349 L30.7392 91.311 C30.7392 91.311 31.0239 89.8804 27.8847 86.8901 C27.8847 86.8901 26.3218 85.185 30.0307 86.1748 L33.1631 87.46 C33.1631 87.46 31.1694 83.7544 29.0307 83.0322 C29.0307 83.0322 29.4541 81.6152 31.1694 83.7544 C31.1694 83.7544 36.8647 84.602 39.0039 86.602 C39.0039 86.602 35.8784 82.0425 31.6001 79.9033 C31.6001 79.9033 30.6001 76.9067 32.1626 77.0454 L34.7324 79.9033 L41.0107 80.9004 C41.0107 80.9004 39.7192 79.4658 37.8716 79.188 C37.8716 79.188 36.5869 79.0459 35.8784 77.334 C35.8784 77.334 32.4546 72.1977 34.8716 70.6352 C34.8716 70.6352 36.3022 71.6318 37.8716 71.6318 L42.4345 75.9033 C42.4345 75.9033 43.0044 72.3472 39.0039 68.7739 C39.0039 68.7739 35.4477 67.9199 36.4477 65.645 C36.4477 65.645 38.726 63.0723 41.143 67.9199 C41.143 67.9199 43.7124 66.3535 39.8647 62.9297 C39.8647 62.9297 36.8647 63.3496 38.1562 61.5058 C38.1562 61.5058 39.8647 59.2173 45.2959 63.3496 L46.4282 62.7837 C46.4282 62.7837 43.8584 59.0786 42.5805 58.9394 C42.5805 58.9394 39.3022 58.5093 42.5805 57.0854 C42.5805 57.0854 47.8447 56.3701 49.852 59.2173 C49.852 59.2173 50.852 57.5054 46.4282 55.085 C46.4282 55.085 48.1435 54.2309 49.852 54.8003 C49.852 54.8003 50.5605 53.2344 43.8584 51.8037 C43.8584 51.8037 39.8647 51.0884 41.872 48.3799 C41.872 48.3799 43.143 46.2475 46.8589 50.6577 L48.9975 50.8071 L48.9975 49.522 C48.9975 49.522 45.8515 45.2441 42.5805 43.9658 C42.5805 43.9658 43.5805 40.6846 46.4282 42.5351 C46.4282 42.5351 49.2754 43.8271 50.2827 45.9595 C50.2827 45.9595 51.1367 47.251 51.1367 45.2441 L50.1367 43.3896 C50.1367 43.3896 52.4145 42.6811 52.6997 45.2441 C52.6997 45.2441 55.415 47.5288 57.4082 47.9595 C57.4082 47.9595 59.2695 48.5254 57.8388 46.3862 C57.8388 46.3862 53.9843 43.6709 57.4082 43.2436 C57.4082 43.2436 61.9712 42.8237 63.6797 41.2505 C63.6797 41.2505 63.4018 46.8135 63.6797 47.8169 L63.2563 51.2412 L68.2427 45.8203 L68.3886 49.3833 C68.3886 49.3833 69.6733 45.9595 70.3886 45.9595 L70.958 48.668 C70.958 48.668 75.813 45.6782 80.6538 46.956 C80.6538 46.956 84.9316 47.251 85.7929 47.8169 C85.7929 47.8169 90.4946 48.3799 94.0644 46.3862 C94.0644 46.3862 98.9121 44.9556 98.9121 49.0879 L98.2041 49.6714 Z M104.621 45.2441 L103.468 44.3931 C103.468 44.3931 103.19 45.6782 103.468 46.3862 C103.468 46.3862 102.475 47.9595 100.913 45.6782 C100.913 45.6782 100.343 46.2475 100.343 46.8135 C100.343 46.8135 97.3427 45.1016 95.9189 45.1016 C95.9189 45.1016 105.191 41.5317 107.045 43.6709 C107.045 43.6709 108.323 45.9595 104.621 45.2441 "
           transform="translate(-10.2788, 3.9224)"
           id="path3552" />
        <path
           style="fill:#ffffff; fill-rule:nonzero;stroke:none;"
           d="M2.7153 0 C2.7153 0 0 2.4204 0.1455 3.0039 C0.1455 3.0039 1.8613 3.5698 3.7153 3.0039 C3.7153 3.0039 1.8613 2.1391 2.7153 0 Z"
           transform="translate(44.8447, 7.3775)"
           id="path3554" />
        <path
           style="fill:#ffffff; fill-rule:nonzero;stroke:none;"
           d="M0 4.8476 C0 4.8476 1.2842 0 5.4864 1.4966 C5.4864 1.4966 9.417 4.9863 8.5557 6.4204 C8.5557 6.4204 9.417 8.8481 4.2784 6.6982 C4.2784 6.6982 3.9932 4.8476 2.7159 5.2749 C2.7159 5.2749 0.708 6.5596 0 4.8476 Z"
           transform="translate(266.248, 124.618)"
           id="path3556" />
        <path
           style="fill:#ffffff; fill-rule:nonzero;stroke:none;"
           d="M0.4229 3.5693 C0.4229 3.5693 0 0 4.9932 0 C4.9932 0 8.8409 2.5659 6.7022 5.7017 L3.1387 4.5664 L3.7081 1.7119 L0.4229 3.5693 Z"
           transform="translate(242.572, 119.055)"
           id="path3558" />
        <path
           style="fill:none;stroke:#161413; stroke-width:0.888974; stroke-linecap:butt; stroke-linejoin:miter; stroke-dasharray:none;"
           d="M0 4.8476 C0 4.8476 1.2842 0 5.4864 1.4966 C5.4864 1.4966 9.417 4.9863 8.5557 6.4204 C8.5557 6.4204 9.417 8.8481 4.2784 6.6982 C4.2784 6.6982 3.9932 4.8476 2.7159 5.2749 C2.7159 5.2749 0.708 6.5596 0 4.8476 Z"
           transform="translate(266.248, 124.618)"
           id="path3560" />
        <path
           style="fill:none;stroke:#161413; stroke-width:0.888974; stroke-linecap:butt; stroke-linejoin:miter; stroke-dasharray:none;"
           d="M0.4229 3.5693 C0.4229 3.5693 0 0 4.9932 0 C4.9932 0 8.8409 2.5659 6.7022 5.7017 L3.1387 4.5664 L3.0274 2.521 L0.4229 3.5693 Z"
           transform="translate(242.572, 119.055)"
           id="path3562" />
        <path
           style="fill:#161413; fill-rule:nonzero;stroke:none;"
           d="M0 1.7119 L3.2852 0 L2.4316 2.5659 L0 1.7119 Z"
           transform="translate(242.995, 121.076)"
           id="path3564" />
        <path
           style="fill:#161413; fill-rule:nonzero;stroke:none;"
           d="M0 0.8643 C0 0.8643 0.708 0.2881 1.2852 0 C1.2852 0 2.5625 0 2.8477 1.4233 C2.8477 1.4233 0.8467 0.7148 0 0.8643 Z"
           transform="translate(267.679, 129.893)"
           id="path3566" />
        <path
           style="fill:#ffec00; fill-rule:nonzero;stroke:#161413; stroke-width:0.888974; stroke-linecap:round; stroke-linejoin:round; stroke-dasharray:none;"
           d="M0.3545 0 C0.3545 0 3 1.8574 2.6739 4.4272 C2.6739 4.4272 2.4307 6.705 0 8.1289 L0.3545 0 Z"
           transform="translate(236.314, 83.399)"
           id="path3568" />
        <path
           style="fill:#ffec00; fill-rule:nonzero;stroke:#161413; stroke-width:0.888974; stroke-linecap:round; stroke-linejoin:round; stroke-dasharray:none;"
           d="M3.2022 0 C3.2022 0 0 3.0278 0.2783 5.4101 C0.2783 5.4101 0.6328 8.8339 3.9941 8.9799 L3.2022 0 Z"
           transform="translate(225.841, 104.87)"
           id="path3570" />
        <path
           style="fill:#ffffff; fill-rule:nonzero;stroke:#161413; stroke-width:0.888974; stroke-linecap:round; stroke-linejoin:round; stroke-dasharray:none;"
           d="M0.3545 0 C0.3545 0 3 1.8511 2.6739 4.4204 C2.6739 4.4204 2.4307 6.6987 0 8.1226 L0.3545 0 Z"
           transform="translate(236.314, 109.505)"
           id="path3572" />
        <path
           style="fill:#ffec00; fill-rule:nonzero;stroke:#161413; stroke-width:0.888974; stroke-linecap:round; stroke-linejoin:round; stroke-dasharray:none;"
           d="M3.2022 0 C3.2022 0 0 3.0352 0.2783 5.4243 C0.2783 5.4243 0.5 9.7774 3.8408 9.916 L3.2022 0 Z"
           transform="translate(225.841, 130.962)"
           id="path3574" />
        <path
           style="fill:#161413; fill-rule:nonzero;stroke:none;"
           d="M4.7851 2.3545 L0 2.3545 L0 0 L4.7851 0 L4.7851 2.3545 Z"
           transform="translate(230.251, 69.5674)"
           id="path3576" />
        <path
           style="fill:#161413; fill-rule:nonzero;stroke:none;"
           d="M8.126 85.5796 L0 85.5796 L0 0 L8.126 0 L8.126 85.5796 Z"
           transform="translate(228.827, 78.836)"
           id="path3578" />
        <path
           style="fill:#ffec00; fill-rule:nonzero;stroke:#161413; stroke-width:0.888974; stroke-linecap:round; stroke-linejoin:round; stroke-dasharray:none;"
           d="M9.418 2.0005 C9.418 3.0976 8.5146 3.9936 7.418 3.9936 L1.9932 3.9936 C0.9033 3.9936 0 3.0976 0 2.0005 L0 2.0005 C0 0.8994 0.9033 0 1.9932 0 L7.418 0 C8.5146 0 9.418 0.8994 9.418 2.0005 L9.418 2.0005 Z"
           transform="translate(228.258, 73.9151)"
           id="path3580" />
        <path
           style="fill:#ffec00; fill-rule:nonzero;stroke:#161413; stroke-width:0.888974; stroke-linecap:round; stroke-linejoin:round; stroke-dasharray:none;"
           d="M9.8408 1.042 C9.8408 1.6011 9.376 2.0664 8.8066 2.0664 L1.0351 2.0664 C0.458 2.0664 0 1.6011 0 1.042 L0 1.042 C0 0.4585 0.458 0 1.0351 0 L8.8066 0 C9.376 0 9.8408 0.4585 9.8408 1.042 L9.8408 1.042 Z"
           transform="translate(228.05, 71.9219)"
           id="path3582" />
        <path
           style="fill:#ffec00; fill-rule:nonzero;stroke:#161413; stroke-width:0.888974; stroke-linecap:round; stroke-linejoin:round; stroke-dasharray:none;"
           d="M9.8408 1.0415 C9.8408 1.6079 9.376 2.0732 8.8066 2.0732 L1.0351 2.0732 C0.458 2.0732 0 1.6079 0 1.0415 L0 1.0415 C0 0.4653 0.458 0 1.0351 0 L8.8066 0 C9.376 0 9.8408 0.4653 9.8408 1.0415 L9.8408 1.0415 Z"
           transform="translate(228.05, 77.6934)"
           id="path3584" />
        <path
           style="fill:#ffec00; fill-rule:nonzero;stroke:#161413; stroke-width:0.888974; stroke-linecap:round; stroke-linejoin:round; stroke-dasharray:none;"
           d="M9.8408 1.042 C9.8408 1.6113 9.376 2.0732 8.8066 2.0732 L1.0351 2.0732 C0.458 2.0732 0 1.6113 0 1.042 L0 1.042 C0 0.4721 0.458 0 1.0351 0 L8.8066 0 C9.376 0 9.8408 0.4721 9.8408 1.042 L9.8408 1.042 Z"
           transform="translate(228.05, 81.6104)"
           id="path3586" />
        <path
           style="fill:#ffec00; fill-rule:nonzero;stroke:#161413; stroke-width:0.888974; stroke-linecap:round; stroke-linejoin:round; stroke-dasharray:none;"
           d="M6.2783 2.4239 C6.2783 3.7569 4.876 4.8399 3.1397 4.8399 C1.4102 4.8399 0 3.7569 0 2.4239 C0 1.0967 1.4102 0 3.1397 0 C4.876 0 6.2783 1.0967 6.2783 2.4239 Z"
           transform="translate(229.682, 169.687)"
           id="path3588" />
        <path
           style="fill:#ffec00; fill-rule:nonzero;stroke:#161413; stroke-width:0.888974; stroke-linecap:round; stroke-linejoin:round; stroke-dasharray:none;"
           d="M9.418 1.9931 C9.418 3.0898 8.5146 3.9931 7.418 3.9931 L1.9932 3.9931 C0.9033 3.9931 0 3.0898 0 1.9931 L0 1.9931 C0 0.8818 0.9033 0 1.9932 0 L7.418 0 C8.5146 0 9.418 0.8818 9.418 1.9931 L9.418 1.9931 Z"
           transform="translate(228.258, 166.339)"
           id="path3590" />
        <path
           style="fill:#ffec00; fill-rule:nonzero;stroke:#161413; stroke-width:0.888974; stroke-linecap:round; stroke-linejoin:round; stroke-dasharray:none;"
           d="M9.8408 1.0352 C9.8408 1.6113 9.376 2.0772 8.8066 2.0772 L1.0351 2.0772 C0.458 2.0772 0 1.6113 0 1.0352 L0 1.0352 C0 0.4658 0.458 0 1.0351 0 L8.8066 0 C9.376 0 9.8408 0.4658 9.8408 1.0352 L9.8408 1.0352 Z"
           transform="translate(228.05, 164.338)"
           id="path3592" />
        <path
           style="fill:#ffec00; fill-rule:nonzero;stroke:#161413; stroke-width:0.888974; stroke-linecap:round; stroke-linejoin:round; stroke-dasharray:none;"
           d="M9.8408 1.0488 C9.8408 1.6182 9.376 2.0703 8.8066 2.0703 L1.0351 2.0703 C0.458 2.0703 0 1.6182 0 1.0488 L0 1.0488 C0 0.4658 0.458 0 1.0351 0 L8.8066 0 C9.376 0 9.8408 0.4658 9.8408 1.0488 L9.8408 1.0488 Z"
           transform="translate(228.05, 170.11)"
           id="path3594" />
        <path
           style="fill:#ffec00; fill-rule:nonzero;stroke:#161413; stroke-width:0.888974; stroke-linecap:round; stroke-linejoin:round; stroke-dasharray:none;"
           d="M12.9317 0 C12.9317 0 12.6055 3.4238 7.3682 5.3477 C7.3682 5.3477 0.1045 8.1226 0 12.2998 L0 21.9224 C0.3125 17.002 8.1182 14.439 8.1182 14.439 C12.8272 12.6157 12.9317 9.6226 12.9317 9.6226 L12.9317 0 Z"
           transform="translate(226.057, 87.8262)"
           id="path3596" />
        <path
           style="fill:#ffec00; fill-rule:nonzero;stroke:#161413; stroke-width:0.888974; stroke-linecap:round; stroke-linejoin:round; stroke-dasharray:none;"
           d="M12.9317 0 C12.9317 0 12.6055 3.4243 7.3682 5.3482 C7.3682 5.3482 0.1045 8.1226 0 12.293 L0 21.9292 C0.3125 17.0088 8.1182 14.439 8.1182 14.439 C12.8272 12.6265 12.9317 9.6294 12.9317 9.6294 L12.9317 0 Z"
           transform="translate(226.057, 113.926)"
           id="path3598" />
        <path
           style="fill:#ffec00; fill-rule:nonzero;stroke:#161413; stroke-width:0.888974; stroke-linecap:round; stroke-linejoin:round; stroke-dasharray:none;"
           d="M2.646 0 C2.646 0 0 1.8613 0.3262 4.4277 C0.3262 4.4277 0.5767 6.709 3.0074 8.1397 L2.646 0 Z"
           transform="translate(59.1723, 83.3882)"
           id="path3600" />
        <path
           style="fill:#ffec00; fill-rule:nonzero;stroke:#161413; stroke-width:0.888974; stroke-linecap:round; stroke-linejoin:round; stroke-dasharray:none;"
           d="M0.7847 0 C0.7847 0 3.9864 3.0244 3.7085 5.4102 C3.7085 5.4102 3.3404 8.834 0 8.98 L0.7847 0 Z"
           transform="translate(68.6733, 104.863)"
           id="path3602" />
        <path
           style="fill:#ffec00; fill-rule:nonzero;stroke:#161413; stroke-width:0.888974; stroke-linecap:round; stroke-linejoin:round; stroke-dasharray:none;"
           d="M2.646 0 C2.646 0 0 1.8505 0.3262 4.4204 C0.3262 4.4204 0.5767 6.7055 3.0074 8.122 L2.646 0 Z"
           transform="translate(59.1723, 109.499)"
           id="path3604" />
        <path
           style="fill:#ffec00; fill-rule:nonzero;stroke:#161413; stroke-width:0.888974; stroke-linecap:round; stroke-linejoin:round; stroke-dasharray:none;"
           d="M0.646 0 C0.646 0 3.8477 3.0279 3.5698 5.417 C3.5698 5.417 3.3477 9.7696 0 9.916 L0.646 0 Z"
           transform="translate(68.812, 130.962)"
           id="path3606" />
        <path
           style="fill:#161413; fill-rule:nonzero;stroke:none;"
           d="M0 2.3477 L4.7646 2.3477 L4.7646 0 L0 0 L0 2.3477 Z"
           transform="translate(63.4712, 69.5674)"
           id="path3608" />
        <path
           style="fill:#161413; fill-rule:nonzero;stroke:none;"
           d="M0 85.5727 L8.1328 85.5727 L8.1328 0 L0 0 L0 85.5727 Z"
           transform="translate(61.5337, 78.836)"
           id="path3610" />
        <path
           style="fill:#ffec00; fill-rule:nonzero;stroke:#161413; stroke-width:0.888974; stroke-linecap:round; stroke-linejoin:round; stroke-dasharray:none;"
           d="M0 2.0005 C0 3.0977 0.8891 3.9903 1.9931 3.9903 L7.4106 3.9903 C8.5146 3.9903 9.4106 3.1045 9.4106 2.0005 L9.4106 2.0005 C9.4106 0.8994 8.5146 0 7.4106 0 L1.9931 0 C0.8891 0 0 0.8994 0 2.0005 L0 2.0005 Z"
           transform="translate(60.8252, 73.9082)"
           id="path3612" />
        <path
           style="fill:#ffec00; fill-rule:nonzero;stroke:#161413; stroke-width:0.888974; stroke-linecap:round; stroke-linejoin:round; stroke-dasharray:none;"
           d="M0 1.0415 C0 1.6079 0.4722 2.0659 1.042 2.0659 L8.8135 2.0659 C9.3897 2.0659 9.8482 1.6079 9.8482 1.0415 L9.8482 1.0415 C9.8482 0.4585 9.3897 0 8.8135 0 L1.042 0 C0.4722 0 0 0.4585 0 1.0415 L0 1.0415 Z"
           transform="translate(60.603, 71.9151)"
           id="path3614" />
        <path
           style="fill:#ffec00; fill-rule:nonzero;stroke:#161413; stroke-width:0.888974; stroke-linecap:round; stroke-linejoin:round; stroke-dasharray:none;"
           d="M0 1.038 C0 1.6079 0.4722 2.0727 1.042 2.0727 L8.8135 2.08 C9.3897 2.08 9.8482 1.6079 9.8482 1.038 L9.8482 1.038 C9.8482 0.4653 9.3897 0 8.8135 0 L1.042 0 C0.4722 0 0 0.4653 0 1.038 L0 1.038 Z"
           transform="translate(60.603, 77.6866)"
           id="path3616" />
        <path
           style="fill:#ffec00; fill-rule:nonzero;stroke:#161413; stroke-width:0.888974; stroke-linecap:round; stroke-linejoin:round; stroke-dasharray:none;"
           d="M0 1.0346 C0 1.6011 0.4722 2.0664 1.042 2.0664 L8.8135 2.0732 C9.3897 2.0732 9.8482 1.6011 9.8482 1.0346 L9.8482 1.0346 C9.8482 0.4721 9.3897 0 8.8135 0 L1.042 0 C0.4722 0 0 0.4721 0 1.0346 L0 1.0346 Z"
           transform="translate(60.603, 81.6104)"
           id="path3618" />
        <path
           style="fill:#ffec00; fill-rule:nonzero;stroke:#161413; stroke-width:0.888974; stroke-linecap:round; stroke-linejoin:round; stroke-dasharray:none;"
           d="M0 2.4239 C0 3.75 1.4101 4.8399 3.1323 4.8399 C4.8686 4.8399 6.2783 3.75 6.2783 2.4239 C6.2783 1.0899 4.8686 0 3.1323 0 C1.4101 0 0 1.0899 0 2.4239 Z"
           transform="translate(62.5337, 169.687)"
           id="path3620" />
        <path
           style="fill:#ffec00; fill-rule:nonzero;stroke:#161413; stroke-width:0.888974; stroke-linecap:round; stroke-linejoin:round; stroke-dasharray:none;"
           d="M0 2 C0 3.0899 0.8891 3.9932 1.9931 3.9932 L7.4106 3.9932 C8.5146 3.9932 9.4106 3.0899 9.4106 2 L9.4106 2 C9.4106 0.8819 8.5146 0 7.4106 0 L1.9931 0 C0.8891 0 0 0.8819 0 2 L0 2 Z"
           transform="translate(60.8252, 166.333)"
           id="path3622" />
        <path
           style="fill:#ffec00; fill-rule:nonzero;stroke:#161413; stroke-width:0.888974; stroke-linecap:round; stroke-linejoin:round; stroke-dasharray:none;"
           d="M0 1.0351 C0 1.6113 0.4722 2.0771 1.042 2.0771 L8.8135 2.0771 C9.3897 2.0771 9.8482 1.6113 9.8482 1.0351 L9.8482 1.0351 C9.8482 0.4658 9.3897 0 8.8135 0 L1.042 0 C0.4722 0 0 0.4658 0 1.0351 L0 1.0351 Z"
           transform="translate(60.603, 164.332)"
           id="path3624" />
        <path
           style="fill:#ffec00; fill-rule:nonzero;stroke:#161413; stroke-width:0.888974; stroke-linecap:round; stroke-linejoin:round; stroke-dasharray:none;"
           d="M0 1.0488 C0 1.6181 0.4722 2.0703 1.042 2.0703 L8.8135 2.0703 C9.3897 2.0703 9.8482 1.6181 9.8482 1.0488 L9.8482 1.0488 C9.8482 0.4726 9.3897 0 8.8135 0 L1.042 0 C0.4722 0 0 0.4726 0 1.0488 L0 1.0488 Z"
           transform="translate(60.603, 170.103)"
           id="path3626" />
        <path
           style="fill:#ffec00; fill-rule:nonzero;stroke:#161413; stroke-width:0.888974; stroke-linecap:round; stroke-linejoin:round; stroke-dasharray:none;"
           d="M0 0 C0 0 0.3267 3.4239 5.5635 5.3511 C5.5635 5.3511 12.8418 8.1255 12.9458 12.3033 L12.9458 21.9258 C12.6265 17.0015 4.813 14.4424 4.813 14.4424 C0.1182 12.626 0 9.6226 0 9.6226 L0 0 Z"
           transform="translate(59.4985, 87.8159)"
           id="path3628" />
        <path
           style="fill:#ffec00; fill-rule:nonzero;stroke:#161413; stroke-width:0.888974; stroke-linecap:round; stroke-linejoin:round; stroke-dasharray:none;"
           d="M0 0 C0 0 0.3267 3.4238 5.5635 5.3476 C5.5635 5.3476 12.8418 8.1294 12.9458 12.2929 L12.9458 21.9292 C12.6265 17.0088 4.813 14.4458 4.813 14.4458 C0.1182 12.623 0 9.6294 0 9.6294 L0 0 Z"
           transform="translate(59.4985, 113.919)"
           id="path3630" />
        <path
           style="fill:#fdc100; fill-rule:nonzero;stroke:none;"
           d="M74.4444 85.9146 C74.4444 85.9146 80.2227 83.9873 77.4512 79.2822 C77.4512 79.2822 76.6319 78.5874 75.6455 79.0357 C75.6455 79.0357 76.1602 82.4907 72.2979 81.8482 C72.2979 81.8482 56.6856 72.0034 57.9707 45.0498 L57.6367 45.0571 L58.0469 43.5249 C59.0147 41.1704 61.6709 32.7017 55.7998 21.4033 L55.6436 20.9917 C56.4932 21.3291 65.6494 24.8179 67.4502 19.2588 C67.4502 19.2588 67.6768 16.7793 61.0616 16.5879 C61.169 16.481 61.9073 15.6792 61.2412 14.3872 C61.2412 14.3872 74.6319 12.5884 74.3057 6.5528 C74.3057 6.5528 72.7842 9.9004 70.1866 8.897 C70.1866 8.897 70.4795 7.9375 70.1387 6.3076 C70.1836 6.6006 70.292 8.7403 64.1172 10.2544 C64.1172 10.2544 58.6026 10.9736 57.1787 12.5674 C57.1787 12.5674 54.8242 12.8174 55.5811 10.0498 C55.5811 10.0498 59.8662 9.6436 60.7139 6.1987 C60.7139 6.1987 66.9991 3.8579 69.4366 4.0283 C69.4366 4.0283 67.9717 2.1392 65.0264 2.7227 C65.0264 2.7227 66.3389 0.4932 68.8604 0 C68.8604 0 58.8662 0.2432 54.1162 10.3447 L52.0186 10.7583 C52.0186 10.7583 56.3799 6.8999 54.0117 2.9795 C54.0117 2.9795 49.7959 5.0908 49.2198 9.793 L43.4834 10.6402 C43.4834 10.6402 43.7256 13.7964 30.753 15.0361 C30.753 15.0361 25.96 24.4541 38.4131 23.5025 C38.4131 23.5025 41.0596 25.8115 42.1494 25.8115 C42.1494 25.8115 49.4239 35.6602 39.9033 45.4356 L38.2949 45.4697 L37.9307 45.7988 C30.8008 44.6245 15.7324 42.896 6.2012 47.1817 L4.2774 46.1123 C4.2774 46.1123 0 47.1817 0.4229 49.543 C0.4229 49.543 0.4229 51.0396 2.1387 49.9702 C2.1387 49.9702 2.2862 50.0039 2.5215 50.0581 L2.1387 50.8281 C1.9239 54.252 4.2774 53.8213 4.2774 53.8213 L17.96 52.752 C20.7451 54.8838 24.169 53.3941 24.169 53.3941 L32.3018 55.1133 C33.7334 63.7149 38.1348 71.1475 42.7647 76.8892 L42.5664 76.9346 C42.5664 76.9346 20.3213 82.4907 44.9209 104.951 C44.9209 104.951 45.3516 114.153 39.7881 117.359 C39.7881 117.359 41.9268 118.862 41.9268 120.147 L44.9209 118.862 C44.9209 118.862 51.7686 110.302 51.7686 104.739 C51.7686 104.739 43.8438 99.1763 48.1221 94.2525 C48.1221 94.2525 51.5459 90.8355 56.4776 93.6099 L56.5772 93.6113 C59.3623 103.314 72.0899 111.587 72.0899 111.587 C71.875 122.713 63.9571 124.418 63.9571 124.418 C63.9571 124.418 66.9571 127.2 66.9571 128.058 L68.8741 125.703 C68.8741 125.703 71.666 128.058 72.2979 124.418 C72.2979 124.418 74.8682 117.144 80.2227 106.663 C80.2227 106.663 69.9512 101.315 74.4444 85.9146 Z M55.5469 20.7349 L55.5576 20.7266 L55.5616 20.7749 L55.5469 20.7349 Z"
           transform="translate(207.777, 1.6963)"
           id="path3632" />
        <path
           style="fill:none;stroke:#161413; stroke-width:0.888974; stroke-linecap:butt; stroke-linejoin:miter; stroke-dasharray:none;"
           d="M41.9268 5.1357 C41.9268 5.1357 19.0362 0 6.2012 5.771 L4.2774 4.7016 C4.2774 4.7016 0 5.771 0.4229 8.1323 C0.4229 8.1323 0.4229 9.6289 2.1387 8.5595 C2.1387 8.5595 8.7715 10.0595 9.4102 10.6987 C9.4102 10.6987 14.1123 11.9834 15.8272 9.2021 C15.8272 9.2021 36.7881 10.4868 39.5655 15.185 "
           transform="translate(207.777, 43.107)"
           id="path3634" />
        <path
           style="fill:none;stroke:#161413; stroke-width:0.888974; stroke-linecap:butt; stroke-linejoin:miter; stroke-dasharray:none;"
           d="M53.2753 1.4096 C65.874 0 65.5263 3.7778 65.5263 3.7778 C63.6377 9.6084 53.6503 5.4829 53.6503 5.4829 C59.7412 17.3554 55.9423 29.7217 55.9423 29.7217 C54.6572 56.6787 70.374 66.3672 70.374 66.3672 C74.2363 67.0097 73.7216 63.5547 73.7216 63.5547 C74.708 63.1064 75.5273 63.8012 75.5273 63.8012 C78.2988 68.5063 72.5205 70.4336 72.5205 70.4336 C68.0273 85.8344 78.2988 91.1821 78.2988 91.1821 C72.9443 101.663 70.374 108.938 70.374 108.938 C69.7421 112.577 66.9502 110.222 66.9502 110.222 L65.0332 112.577 C65.0332 111.719 62.0332 108.938 62.0332 108.938 C62.0332 108.938 69.9511 107.232 70.166 96.1064 C70.166 96.1064 53.6992 85.4072 54.123 74.0727 C54.123 74.0727 33.7949 60.1621 30.3779 39.6323 L22.2451 37.9131 C22.2451 37.9131 18.8212 39.4028 16.0361 37.271 L2.3535 38.3403 C2.3535 38.3403 0 38.771 0.2148 35.3471 L0.2148 34.4892 "
           transform="translate(209.701, 17.1773)"
           id="path3636" />
        <path
           style="fill:none;stroke:#161413; stroke-width:0.888974; stroke-linecap:butt; stroke-linejoin:miter; stroke-dasharray:none;"
           d="M12.9883 45.876 C22.8291 34.7534 16.1894 25.8115 16.1894 25.8115 C15.0996 25.8115 12.4531 23.5025 12.4531 23.5025 C0 24.4541 4.793 15.0361 4.793 15.0361 C17.7656 13.7964 17.5234 10.6402 17.5234 10.6402 L23.2598 9.793 C23.8359 5.0908 28.0517 2.9795 28.0517 2.9795 C30.4199 6.8999 26.0586 10.7583 26.0586 10.7583 L28.1562 10.3447 C32.9062 0.2432 42.9004 0 42.9004 0 C40.3789 0.4932 39.0664 2.7227 39.0664 2.7227 C42.0117 2.1392 43.4766 4.0283 43.4766 4.0283 C41.0391 3.8579 34.7539 6.1987 34.7539 6.1987 C33.9062 9.6436 29.6211 10.0498 29.6211 10.0498 C28.8642 12.8174 31.2187 12.5674 31.2187 12.5674 C32.6426 10.9736 38.1572 10.2544 38.1572 10.2544 C44.7969 8.626 44.1719 6.2715 44.1719 6.2715 C44.5254 7.9243 44.2266 8.897 44.2266 8.897 C46.8242 9.9004 48.3457 6.5528 48.3457 6.5528 C48.6719 12.5884 35.2812 14.3872 35.2812 14.3872 C35.9971 15.7759 35.0801 16.6094 35.0801 16.6094 "
           transform="translate(233.737, 1.6963)"
           id="path3638" />
        <path
           style="fill:none;stroke:#161413; stroke-width:0.888974; stroke-linecap:butt; stroke-linejoin:miter; stroke-dasharray:none;"
           d="M0 0.8715 L5.5 0 "
           transform="translate(237.593, 20.5943)"
           id="path3640" />
        <path
           style="fill:none;stroke:#161413; stroke-width:0.888974; stroke-linecap:butt; stroke-linejoin:miter; stroke-dasharray:none;"
           d="M0 2.8925 C0 2.8925 3.5635 0 7.7237 0.0483 "
           transform="translate(248.398, 14.3819)"
           id="path3642" />
        <path
           style="fill:#ffffff; fill-rule:nonzero;stroke:#161413; stroke-width:0.888974; stroke-linecap:butt; stroke-linejoin:miter; stroke-dasharray:none;"
           d="M4.9512 0 L5.1738 1.8369 C5.1738 1.8369 1.1387 3.5175 0 2.146 C0 2.146 1.8467 0.4585 4.9512 0 Z"
           transform="translate(249.462, 14.6319)"
           id="path3644" />
        <path
           style="fill:#161413; fill-rule:nonzero;stroke:none;"
           d="M0 2.5244 C0 2.5244 0.6943 0 2.5283 2.0313 L0 2.5244 Z"
           transform="translate(251.045, 14.7256)"
           id="path3646" />
        <path
           style="fill:#ffec00; fill-rule:nonzero;stroke:#161413; stroke-width:0.888974; stroke-linecap:round; stroke-linejoin:round; stroke-dasharray:none;"
           d="M0.2431 54.5952 L10.8066 54.5952 C10.8066 54.5952 10.9111 52.5293 8.9521 50.168 C8.9521 50.168 6.7373 47.5703 9.3066 42.584 C9.3066 42.584 11.1259 38.6216 8.3486 35.4097 C8.3486 35.4097 5.3476 32.4092 8.2441 26.5269 C8.2441 26.5269 9.8349 22.9985 7.2861 19.4707 C7.2861 19.4707 4.8623 17.0815 7.4873 10.3794 C7.4873 10.3794 8.9248 6.6011 5.9941 3 C5.9941 3 5.1259 1.6074 5.1259 0 C5.1259 0 3.9941 1.5347 5.7158 4.7363 C5.7158 4.7363 7.1533 7.6152 4.8203 12.2998 C4.8203 12.2998 2.3545 16.9043 4.9248 20.5435 C4.9248 20.5435 7.2373 23.1411 3.5351 28.2388 C3.5351 28.2388 1.1738 32.5171 3.8613 36.6943 C3.8613 36.6943 5.5566 39.9028 1.8203 45.1431 C1.8203 45.1431 0.3193 47.8237 1.9238 50.6055 C1.9238 50.6055 2.7851 53.2759 0 54.5674 "
           transform="translate(226.584, 14.9722)"
           id="path3648" />
        <path
           style="fill:#ffec00; fill-rule:nonzero;stroke:#161413; stroke-width:0.888974; stroke-linecap:round; stroke-linejoin:round; stroke-dasharray:none;"
           d="M10.8692 54.5952 L0.3193 54.5952 C0.3193 54.5952 0.2153 52.5225 2.1738 50.168 C2.1738 50.168 4.3755 47.5703 1.8057 42.5767 C1.8057 42.5767 0 38.6147 2.7778 35.4097 C2.7778 35.4097 5.7783 32.4092 2.8823 26.5269 C2.8823 26.5269 1.2778 22.9985 3.8408 19.4707 C3.8408 19.4707 6.2573 17.0815 3.6392 10.3794 C3.6392 10.3794 2.2085 6.6011 5.1255 3 C5.1255 3 5.9868 1.6074 5.9868 0 C5.9868 0 7.1187 1.5347 5.4102 4.7363 C5.4102 4.7363 3.9795 7.6152 6.3062 12.2998 C6.3062 12.2998 8.7647 16.9043 6.1948 20.5435 C6.1948 20.5435 3.8892 23.1411 7.584 28.2388 C7.584 28.2388 9.9385 32.5171 7.2647 36.6943 C7.2647 36.6943 5.5562 39.896 9.3067 45.1362 C9.3067 45.1362 10.7925 47.8135 9.2022 50.6055 C9.2022 50.6055 8.3482 53.269 11.1192 54.5605 "
           transform="translate(60.7905, 14.9722)"
           id="path3650" />
        <path
           style="fill:none;stroke:#161413; stroke-width:0.888974; stroke-linecap:butt; stroke-linejoin:miter; stroke-dasharray:none;"
           d="M22.2451 0 C22.2451 0 0 5.5561 24.5996 28.0166 C24.5996 28.0166 25.0303 37.2187 19.4668 40.4243 C19.4668 40.4243 21.8555 41.7715 21.8555 43.063 L24.5996 41.9209 C24.5996 41.9209 31.4473 33.3677 31.4473 27.8047 C31.4473 27.8047 23.5225 22.2417 27.8008 17.3179 C27.8008 17.3179 31.2246 13.9009 36.1563 16.6753 "
           transform="translate(228.099, 78.6309)"
           id="path3652" />
      </g>
      <g
         id="Group2"
         clip-path="url(#Clip2)">
        <path
           style="fill:#e20010; fill-rule:nonzero;stroke:#161413; stroke-width:0.75; stroke-linecap:butt; stroke-linejoin:miter; stroke-dasharray:none;"
           d="M5.8554 14.0781 L0 22.1377 L0 0 L5.8554 14.0781 Z"
           transform="translate(149.23, 0.1441)"
           id="path3655" />
        <path
           style="fill:#e20010; fill-rule:nonzero;stroke:#161413; stroke-width:0.75; stroke-linecap:butt; stroke-linejoin:miter; stroke-dasharray:none;"
           d="M15.1982 0 L21.0537 8.0601 L0 1.2192 L15.1982 0 Z"
           transform="translate(128.176, 14.2217)"
           id="path3657" />
        <path
           style="fill:#e20010; fill-rule:nonzero;stroke:#161413; stroke-width:0.75; stroke-linecap:butt; stroke-linejoin:miter; stroke-dasharray:none;"
           d="M3.5371 3.0786 L13.0117 0 L0 17.9091 L3.5371 3.0786 Z"
           transform="translate(136.218, 22.2818)"
           id="path3659" />
        <path
           style="fill:#e20010; fill-rule:nonzero;stroke:#161413; stroke-width:0.75; stroke-linecap:butt; stroke-linejoin:miter; stroke-dasharray:none;"
           d="M0 9.9629 L0 0 L13.0117 17.9091 L0 9.9629 Z"
           transform="translate(149.23, 22.2818)"
           id="path3661" />
        <path
           style="fill:#e20010; fill-rule:nonzero;stroke:#161413; stroke-width:0.75; stroke-linecap:butt; stroke-linejoin:miter; stroke-dasharray:none;"
           d="M9.4609 9.9151 L0 6.8409 L21.0527 0 L9.4609 9.9151 Z"
           transform="translate(149.23, 15.4409)"
           id="path3663" />
        <path
           style="fill:#ffec00; fill-rule:nonzero;stroke:#161413; stroke-width:0.75; stroke-linecap:butt; stroke-linejoin:miter; stroke-dasharray:none;"
           d="M0 14.0776 L5.8555 22.1377 L5.8555 0 L0 14.0776 Z"
           transform="translate(143.374, 0.1441)"
           id="path3665" />
        <path
           style="fill:#ffec00; fill-rule:nonzero;stroke:#161413; stroke-width:0.75; stroke-linecap:butt; stroke-linejoin:miter; stroke-dasharray:none;"
           d="M5.8554 0 L0 8.0596 L21.0537 1.2187 L5.8554 0 Z"
           transform="translate(149.23, 14.2222)"
           id="path3667" />
        <path
           style="fill:#ffec00; fill-rule:nonzero;stroke:#161413; stroke-width:0.75; stroke-linecap:butt; stroke-linejoin:miter; stroke-dasharray:none;"
           d="M9.4609 3.0742 L0 0 L13.0117 17.9091 L9.4609 3.0742 Z"
           transform="translate(149.23, 22.2818)"
           id="path3669" />
        <path
           style="fill:#ffec00; fill-rule:nonzero;stroke:#161413; stroke-width:0.75; stroke-linecap:butt; stroke-linejoin:miter; stroke-dasharray:none;"
           d="M13.0117 9.9629 L13.0117 0 L0 17.9091 L13.0117 9.9629 Z"
           transform="translate(136.218, 22.2818)"
           id="path3671" />
        <path
           style="fill:#ffec00; fill-rule:nonzero;stroke:#161413; stroke-width:0.75; stroke-linecap:butt; stroke-linejoin:miter; stroke-dasharray:none;"
           d="M11.5782 9.9195 L21.0528 6.8409 L0 0 L11.5782 9.9195 Z"
           transform="translate(128.177, 15.4409)"
           id="path3673" />
      </g>
    </g>
  </g>
</svg>
